<?xml version="1.0" encoding="UTF-8" ?>
<!DOCTYPE svg PUBLIC "-//W3C//DTD SVG 1.1//EN" "http://www.w3.org/Graphics/SVG/1.1/DTD/svg11.dtd">
<svg width="447pt" height="113pt" viewBox="0 0 447 113" version="1.1" xmlns="http://www.w3.org/2000/svg">
<g id="#ffffffff">
</g>
<g id="#5a529eff">
<path fill="#5a529e" opacity="1.00" d=" M 22.17 19.98 C 22.05 12.71 28.78 6.40 35.98 6.65 C 69.66 6.57 103.34 6.61 137.02 6.63 C 144.43 6.19 151.08 12.69 151.18 20.03 C 151.25 42.99 151.18 65.96 151.21 88.93 C 151.46 94.20 148.48 99.46 143.78 101.88 C 140.86 103.73 137.29 103.42 134.00 103.44 C 101.36 103.38 68.71 103.47 36.07 103.39 C 30.55 103.56 25.25 99.96 23.14 94.91 C 21.32 89.94 22.37 84.48 22.22 79.30 C 30.07 81.66 37.71 84.66 45.29 87.77 C 56.63 92.55 68.69 95.97 81.04 96.44 C 91.50 97.16 102.44 94.36 110.63 87.65 C 116.03 83.08 120.32 77.04 122.15 70.15 C 105.95 75.01 88.56 76.88 71.96 72.85 C 54.62 68.97 39.39 59.10 22.18 54.82 C 22.11 43.21 22.11 31.59 22.17 19.98 M 35.74 18.02 C 36.51 26.26 37.18 34.52 38.11 42.74 C 46.46 45.53 54.40 49.47 62.90 51.81 C 78.97 56.96 96.56 58.04 112.94 53.64 C 121.46 51.49 130.10 48.56 137.01 42.95 C 136.49 34.95 136.23 26.94 135.80 18.95 C 119.74 28.50 100.75 33.62 82.04 31.49 C 65.86 30.06 50.95 23.20 35.74 18.02 Z" />
</g>
<g id="#000000ff">
<path fill="#000000" opacity="1.00" d=" M 179.51 26.52 C 182.96 20.84 190.65 19.88 196.59 21.41 C 196.54 24.37 196.53 27.34 196.64 30.30 C 194.21 30.21 191.27 29.44 189.31 31.36 C 186.69 33.50 187.84 37.24 187.63 40.15 C 190.61 40.15 193.59 40.14 196.57 40.11 C 196.54 43.10 196.54 46.09 196.63 49.07 C 193.62 49.12 190.61 49.12 187.60 49.09 C 187.65 59.31 187.57 69.54 187.64 79.76 C 184.06 79.69 180.47 79.70 176.89 79.71 C 176.82 69.52 176.87 59.32 176.87 49.13 C 174.71 49.11 172.55 49.11 170.40 49.12 C 170.46 46.10 170.45 43.08 170.44 40.06 C 172.57 40.08 174.70 40.11 176.83 40.16 C 176.80 35.53 176.59 30.44 179.51 26.52 Z" />
<path fill="#000000" opacity="1.00" d=" M 363.74 26.74 C 367.10 21.07 374.75 19.78 380.68 21.35 C 381.53 24.20 380.86 27.34 381.06 30.30 C 378.29 30.07 374.78 29.48 372.91 32.10 C 371.53 34.54 372.20 37.49 372.12 40.15 C 375.11 40.17 378.10 40.20 381.08 39.92 C 381.03 42.99 381.05 46.06 381.06 49.13 C 378.06 49.10 375.06 49.11 372.07 49.12 C 372.05 59.33 372.06 69.55 372.06 79.77 C 368.50 79.68 364.94 79.69 361.38 79.74 C 361.40 69.52 361.36 59.31 361.40 49.10 C 359.20 49.11 357.00 49.12 354.80 49.13 C 354.79 46.06 354.79 42.98 354.81 39.91 C 356.97 40.14 359.15 40.17 361.32 40.18 C 361.45 35.65 360.90 30.63 363.74 26.74 Z" />
<path fill="#000000" opacity="1.00" d=" M 211.37 39.58 C 218.56 37.52 226.92 39.35 232.20 44.77 C 240.36 52.86 240.14 67.82 231.54 75.52 C 223.27 83.31 208.39 82.53 201.27 73.53 C 196.60 67.97 195.65 59.98 197.55 53.12 C 199.38 46.59 204.81 41.30 211.37 39.58 M 213.21 49.29 C 205.95 52.70 205.20 63.83 210.95 68.97 C 213.83 71.46 218.14 71.64 221.58 70.35 C 229.41 66.64 229.55 53.80 222.13 49.59 C 219.45 48.13 215.96 47.92 213.21 49.29 Z" />
<path fill="#000000" opacity="1.00" d=" M 282.26 44.74 C 287.48 37.02 301.08 36.55 305.61 45.21 C 310.11 38.87 319.37 36.85 326.04 40.90 C 330.16 43.12 332.50 47.77 332.47 52.37 C 332.57 61.49 332.46 70.62 332.51 79.74 C 329.12 79.69 325.74 79.69 322.35 79.76 C 322.42 72.17 322.37 64.58 322.39 56.99 C 322.43 54.07 321.66 50.56 318.73 49.22 C 314.34 46.82 308.41 49.99 307.97 54.98 C 307.60 63.21 307.86 71.48 307.86 79.72 C 304.35 79.69 300.85 79.69 297.35 79.76 C 297.39 71.84 297.43 63.93 297.35 56.02 C 297.44 52.41 294.87 48.53 290.98 48.47 C 286.67 47.86 282.65 51.75 282.72 56.01 C 282.70 63.91 282.67 71.82 282.76 79.72 C 279.21 79.70 275.67 79.70 272.14 79.72 C 272.17 66.52 272.20 53.32 272.12 40.11 C 275.48 40.17 278.85 40.24 282.20 39.91 C 282.22 41.52 282.24 43.13 282.26 44.74 Z" />
<path fill="#000000" opacity="1.00" d=" M 243.44 40.15 C 246.86 40.13 250.28 40.15 253.71 40.10 C 253.68 41.89 253.66 43.69 253.63 45.49 C 256.57 40.74 262.21 39.08 267.53 39.73 C 267.49 43.33 267.48 46.93 267.56 50.53 C 263.89 49.82 259.85 50.48 256.95 52.95 C 254.80 54.97 254.10 58.07 254.11 60.93 C 254.09 67.20 254.12 73.46 254.12 79.73 C 250.57 79.69 247.03 79.69 243.48 79.74 C 243.48 66.54 243.55 53.35 243.44 40.15 Z" />
<path fill="#000000" opacity="1.00" d=" M 340.43 40.11 C 343.99 40.15 347.55 40.14 351.11 40.16 C 351.02 53.36 351.29 66.57 350.97 79.76 C 347.46 79.68 343.94 79.69 340.43 79.75 C 340.45 66.53 340.45 53.32 340.43 40.11 Z" />
<path fill="#000000" opacity="1.00" d=" M 381.59 39.87 C 385.53 39.84 389.47 39.90 393.41 39.80 C 397.17 47.55 400.37 55.56 404.21 63.27 C 407.38 55.43 410.69 47.65 413.98 39.86 C 417.77 39.86 421.55 39.86 425.34 39.85 C 416.92 58.30 408.81 76.89 400.40 95.34 C 396.65 95.32 392.90 95.32 389.15 95.35 C 392.29 88.47 395.33 81.54 398.55 74.69 C 392.79 63.13 387.30 51.45 381.59 39.87 Z" />
</g>
</svg>
