<?xml version="1.0" encoding="UTF-8" ?>
<!DOCTYPE svg PUBLIC "-//W3C//DTD SVG 1.1//EN" "http://www.w3.org/Graphics/SVG/1.1/DTD/svg11.dtd">
<svg width="1682pt" height="405pt" viewBox="0 0 1682 405" version="1.1" xmlns="http://www.w3.org/2000/svg">
<g id="#ffffffff">
<path fill="#ffffff" opacity="1.00" d=" M 1.26 53.92 C 2.12 25.21 28.52 0.61 57.01 0.50 C 200.00 0.50 342.99 0.48 485.98 0.51 C 514.30 1.98 538.66 27.68 539.24 55.93 C 539.28 151.29 539.22 246.66 539.27 342.02 C 540.32 355.99 535.92 370.18 527.57 381.38 C 517.25 395.20 500.54 404.55 483.07 404.24 C 351.71 404.27 220.35 404.24 88.99 404.25 C 76.67 403.59 64.30 404.40 51.98 403.78 C 33.65 401.74 16.78 390.19 7.92 374.07 C 2.28 364.06 1.20 352.29 0.77 341.02 C 0.62 328.46 1.75 315.92 1.53 303.36 C 39.85 314.77 76.80 330.13 113.80 345.16 C 155.73 361.42 199.96 372.82 245.04 374.76 C 288.51 378.04 334.01 366.88 368.44 339.44 C 391.58 320.36 410.01 294.81 417.88 265.64 C 373.55 278.85 327.34 286.79 280.99 285.86 C 240.87 285.36 201.15 276.93 163.46 263.44 C 108.93 244.07 57.69 215.59 1.25 201.65 C 1.16 184.10 1.48 166.55 0.99 149.01 C 0.83 117.31 1.36 85.62 1.26 53.92 M 58.14 48.32 C 61.31 82.57 64.05 116.87 68.00 151.04 C 102.77 162.67 135.84 179.05 171.24 188.83 C 233.01 208.58 299.93 214.01 363.56 200.32 C 379.36 196.76 395.03 192.59 410.46 187.65 C 435.24 179.48 459.54 168.52 479.85 151.88 C 477.81 118.70 476.55 85.47 474.94 52.27 C 432.35 77.41 385.23 95.23 336.24 102.59 C 307.25 107.02 277.67 107.48 248.54 104.17 C 219.35 101.37 190.76 94.29 162.87 85.44 C 127.55 74.23 93.18 60.32 58.14 48.32 Z" />
<path fill="#ffffff" opacity="1.00" d=" M 1428.75 78.76 C 1438.69 66.50 1454.56 60.49 1469.98 59.48 C 1478.61 58.74 1487.32 59.79 1495.72 61.80 C 1499.14 74.08 1496.64 86.91 1497.26 99.44 C 1487.61 98.65 1476.89 96.76 1468.19 102.20 C 1462.66 105.47 1460.59 112.06 1459.94 118.08 C 1459.31 125.46 1460.17 132.86 1460.00 140.25 C 1472.45 140.14 1485.00 140.71 1497.38 139.06 C 1497.08 152.05 1497.33 165.05 1497.25 178.05 C 1484.76 177.42 1472.25 177.89 1459.75 177.75 C 1459.74 220.34 1459.76 262.92 1459.74 305.51 C 1444.82 305.36 1429.91 305.14 1415.00 305.50 C 1415.00 262.92 1415.00 220.33 1415.00 177.75 C 1405.82 177.66 1396.65 177.81 1387.49 177.99 C 1387.67 165.06 1387.13 152.12 1387.81 139.20 C 1396.75 140.18 1405.75 140.35 1414.73 140.25 C 1415.36 126.15 1413.94 111.69 1418.14 98.00 C 1420.15 90.86 1424.33 84.62 1428.75 78.76 Z" />
<path fill="#ffffff" opacity="1.00" d=" M 687.13 61.91 C 700.62 58.34 715.03 58.74 728.52 62.10 C 728.16 74.56 728.08 87.04 728.82 99.47 C 720.55 99.15 711.90 97.02 703.90 100.10 C 697.92 102.63 693.01 108.02 691.69 114.46 C 689.71 122.96 691.63 131.65 691.25 140.25 C 703.67 140.28 716.09 140.29 728.50 140.00 C 727.86 152.59 728.44 165.21 728.66 177.80 C 716.10 177.68 703.55 177.78 691.00 177.75 C 691.14 220.33 690.69 262.93 691.25 305.50 C 676.17 305.50 661.09 305.08 646.00 305.25 C 646.00 262.85 646.00 220.45 646.00 178.05 C 637.00 177.49 627.97 177.85 618.96 177.75 C 619.57 165.08 619.10 152.39 619.25 139.71 C 628.07 140.23 636.91 139.88 645.74 140.27 C 645.74 121.10 644.96 99.97 656.79 83.68 C 663.41 72.65 674.79 65.08 687.13 61.91 Z" />
<path fill="#ffffff" opacity="1.00" d=" M 803.08 135.13 C 821.83 132.83 841.36 136.13 857.99 145.21 C 873.27 153.56 885.81 166.87 893.09 182.70 C 901.21 200.06 903.56 219.93 900.35 238.78 C 897.20 257.92 887.78 276.15 873.05 288.92 C 847.59 311.83 808.48 316.10 777.57 302.43 C 759.15 294.50 744.27 279.20 736.14 260.95 C 727.73 241.86 726.51 220.07 730.84 199.81 C 734.52 181.86 744.72 165.42 758.88 153.85 C 771.31 143.35 787.01 137.18 803.08 135.13 M 809.27 175.09 C 795.03 176.95 782.61 187.08 777.05 200.20 C 770.40 215.12 770.98 233.04 778.44 247.57 C 782.24 254.73 787.78 261.22 795.10 264.93 C 806.31 270.69 819.87 270.54 831.59 266.39 C 838.85 263.33 844.95 257.82 849.20 251.22 C 861.74 231.68 859.84 203.37 843.47 186.57 C 834.77 177.55 821.59 173.48 809.27 175.09 Z" />
<path fill="#ffffff" opacity="1.00" d=" M 1085.52 158.97 C 1102.06 135.38 1136.67 128.22 1162.06 140.90 C 1170.78 145.33 1178.17 152.37 1182.69 161.08 C 1197.78 140.09 1226.09 130.23 1251.06 136.38 C 1265.13 139.96 1278.60 148.11 1286.24 160.74 C 1291.51 169.16 1294.41 179.03 1294.75 188.95 C 1295.24 227.79 1294.91 266.65 1294.99 305.51 C 1285.31 305.65 1275.64 304.83 1265.97 305.45 C 1261.37 305.58 1256.78 305.47 1252.20 305.48 C 1252.86 295.67 1252.32 285.80 1252.50 275.97 C 1252.50 254.98 1252.49 233.99 1252.50 213.01 C 1252.73 204.57 1251.93 195.74 1247.75 188.24 C 1243.40 180.02 1234.04 175.30 1224.97 174.94 C 1209.59 174.19 1194.13 186.25 1192.73 201.90 C 1191.04 236.42 1192.24 270.98 1192.25 305.52 C 1177.59 304.84 1162.93 305.56 1148.27 305.51 C 1148.23 273.67 1148.25 241.82 1148.26 209.98 C 1148.58 202.59 1147.24 194.99 1143.36 188.62 C 1138.88 180.69 1130.32 175.07 1121.09 175.08 C 1104.08 173.08 1088.02 188.21 1087.49 205.00 C 1087.69 229.00 1086.77 253.00 1087.51 276.99 C 1087.49 286.50 1087.51 296.00 1087.50 305.50 C 1072.67 305.13 1057.83 305.16 1043.01 305.51 C 1043.44 250.33 1043.33 195.13 1043.00 139.96 C 1057.07 140.49 1071.21 140.53 1085.24 139.20 C 1085.18 145.79 1085.66 152.37 1085.52 158.97 Z" />
<path fill="#ffffff" opacity="1.00" d=" M 999.10 139.65 C 1007.30 137.70 1015.86 137.56 1024.21 138.51 C 1023.75 153.57 1023.99 168.66 1024.26 183.73 C 1010.40 181.12 995.22 183.02 983.46 191.19 C 975.44 196.44 971.02 205.67 969.30 214.85 C 967.82 221.80 968.33 228.92 968.25 235.97 C 968.25 259.14 968.25 282.32 968.25 305.49 C 953.42 305.11 938.58 305.29 923.75 305.50 C 923.68 250.41 923.94 195.32 923.50 140.25 C 937.83 140.33 952.17 140.21 966.50 140.00 C 966.65 147.32 966.09 154.62 966.23 161.94 C 973.56 150.39 985.85 142.56 999.10 139.65 Z" />
<path fill="#ffffff" opacity="1.00" d=" M 1499.13 139.00 C 1515.67 138.89 1532.22 139.26 1548.75 138.74 C 1564.43 170.94 1577.65 204.28 1593.68 236.31 C 1606.79 203.70 1620.61 171.39 1634.26 139.00 C 1650.14 139.00 1666.02 138.99 1681.91 139.00 C 1646.83 216.00 1613.01 293.57 1577.85 370.54 C 1562.12 370.46 1546.38 370.52 1530.65 370.50 C 1543.47 342.64 1555.68 314.49 1568.78 286.74 C 1569.08 285.73 1570.14 284.59 1569.48 283.51 C 1545.61 235.55 1522.79 187.07 1499.13 139.00 Z" />
<path fill="#ffffff" opacity="1.00" d=" M 1327.75 140.00 C 1342.66 140.39 1357.58 140.22 1372.50 140.25 C 1372.33 195.34 1372.94 250.44 1371.99 305.51 C 1357.24 305.28 1342.50 305.23 1327.75 305.50 C 1327.75 250.33 1327.75 195.17 1327.75 140.00 Z" />
</g>
</svg>
