<?xml version="1.0" encoding="UTF-8" ?>
<!DOCTYPE svg PUBLIC "-//W3C//DTD SVG 1.1//EN" "http://www.w3.org/Graphics/SVG/1.1/DTD/svg11.dtd">
<svg width="210pt" height="72pt" viewBox="0 0 210 72" version="1.1" xmlns="http://www.w3.org/2000/svg">
<g id="#ffffffff">
<path fill="#ffffff" opacity="1.00" d=" M 0.00 0.00 L 210.00 0.00 L 210.00 72.00 L 0.00 72.00 L 0.00 0.00 M 182.46 9.65 C 176.17 11.50 172.07 18.49 173.53 24.88 C 174.84 32.02 182.78 37.06 189.79 34.90 C 196.80 33.17 201.27 25.04 198.84 18.20 C 196.89 11.49 189.09 7.45 182.46 9.65 M 15.75 15.77 C 11.73 18.03 10.55 22.99 10.63 27.28 C 9.08 27.28 7.54 27.27 6.00 27.27 C 6.00 28.67 6.01 30.07 6.01 31.47 C 7.58 31.45 9.14 31.43 10.70 31.41 C 10.78 38.98 10.70 46.55 10.75 54.13 C 12.26 53.99 13.78 53.85 15.30 53.70 C 14.90 50.49 14.63 47.26 15.06 44.05 C 15.48 41.73 14.09 39.15 15.35 37.00 C 14.22 35.32 14.97 33.24 15.15 31.41 C 17.04 31.43 18.93 31.44 20.82 31.45 C 20.82 30.07 20.82 28.68 20.82 27.29 C 19.10 27.29 17.37 27.33 15.65 27.23 C 13.66 26.15 15.24 23.67 15.60 22.12 C 16.96 18.98 20.80 17.83 23.80 19.27 C 24.71 18.20 25.58 17.11 26.48 16.04 C 23.27 13.96 19.01 13.60 15.75 15.77 M 116.82 14.73 C 116.84 20.05 116.78 25.37 116.87 30.69 C 113.35 27.17 107.97 25.26 103.17 27.20 C 94.68 29.95 91.19 41.30 96.25 48.53 C 100.44 55.59 111.48 56.83 116.76 50.34 C 116.78 51.54 116.80 52.75 116.83 53.96 C 118.28 53.94 119.74 53.91 121.19 53.86 C 121.15 40.83 121.19 27.80 121.18 14.76 C 119.73 14.75 118.27 14.74 116.82 14.73 M 155.79 25.01 C 160.19 29.34 164.50 33.76 168.90 38.09 C 164.53 42.46 160.20 46.86 155.80 51.19 C 157.26 52.70 158.73 54.20 160.19 55.71 C 166.07 49.87 171.92 43.98 177.76 38.10 C 171.88 32.29 166.09 26.38 160.22 20.55 C 158.76 22.05 157.28 23.53 155.79 25.01 M 39.98 32.99 C 35.38 40.01 38.48 50.70 46.43 53.70 C 53.60 56.85 62.24 52.19 64.47 44.91 C 63.19 44.52 61.85 44.24 60.79 43.38 C 58.99 46.74 56.16 50.18 52.03 50.33 C 48.51 50.64 45.38 48.52 43.26 45.89 C 50.47 43.11 57.82 40.70 64.90 37.62 C 63.51 33.39 60.86 29.27 56.57 27.58 C 50.70 24.81 43.17 27.41 39.98 32.99 M 126.93 28.83 C 123.31 31.28 123.20 37.58 127.04 39.86 C 131.42 42.75 137.19 41.83 141.58 44.76 C 141.53 46.33 142.20 48.50 140.26 49.21 C 135.61 51.62 129.60 50.53 126.19 46.52 C 125.18 47.37 124.17 48.20 123.16 49.03 C 127.62 55.15 137.06 56.50 143.17 52.16 C 146.66 49.76 146.99 43.96 143.51 41.41 C 139.40 38.26 133.64 39.29 129.33 36.61 C 127.97 35.87 127.99 34.09 128.59 32.86 C 132.23 29.43 138.62 29.98 141.88 33.69 C 142.98 33.02 144.08 32.36 145.19 31.70 C 141.52 25.69 132.35 24.84 126.93 28.83 M 23.39 27.28 C 23.43 36.19 23.37 45.11 23.42 54.03 C 24.77 54.03 26.12 54.03 27.47 54.04 C 27.59 49.08 27.31 44.12 27.61 39.18 C 28.77 34.35 33.65 30.99 38.57 31.33 C 38.57 29.96 38.57 28.59 38.57 27.22 C 34.44 26.87 30.44 28.29 27.50 31.21 C 27.50 30.23 27.49 28.26 27.49 27.27 C 26.13 27.27 24.76 27.27 23.39 27.28 M 67.64 31.80 C 65.90 39.01 67.22 46.52 66.76 53.86 C 68.26 53.89 69.75 53.91 71.25 53.91 C 71.26 47.59 71.12 41.27 71.29 34.96 C 71.22 32.55 73.90 31.24 76.01 31.46 C 79.45 31.52 83.17 30.84 86.31 32.63 C 88.13 39.58 86.70 46.92 87.19 54.03 C 88.60 54.03 90.01 54.03 91.42 54.03 C 91.42 48.04 91.47 42.04 91.42 36.05 C 91.72 31.52 87.76 26.90 83.07 27.28 C 79.74 27.27 76.40 27.10 73.09 27.45 C 70.66 27.93 69.04 29.92 67.64 31.80 M 176.71 48.03 C 176.59 53.68 176.71 59.34 176.67 65.00 C 178.86 65.00 181.05 65.00 183.24 65.00 C 183.27 59.63 183.18 54.26 183.26 48.90 C 183.05 47.19 184.32 45.36 186.12 45.36 C 191.69 45.15 197.27 45.35 202.85 45.28 C 202.84 43.08 202.84 40.89 202.85 38.70 C 197.30 38.73 191.76 38.64 186.22 38.72 C 181.26 38.74 176.80 43.06 176.71 48.03 Z" />
<path fill="#ffffff" opacity="1.00" d=" M 183.33 16.38 C 187.73 13.72 193.81 18.09 192.84 23.10 C 192.49 28.20 185.43 30.72 181.91 27.02 C 178.56 24.19 179.39 18.26 183.33 16.38 Z" />
<path fill="#ffffff" opacity="1.00" d=" M 42.12 40.12 C 41.83 34.15 48.46 29.11 54.11 31.22 C 56.35 31.75 57.82 33.62 59.25 35.27 C 53.30 37.32 47.62 40.36 41.43 41.59 C 41.60 41.22 41.95 40.49 42.12 40.12 Z" />
<path fill="#ffffff" opacity="1.00" d=" M 106.55 30.78 C 114.14 29.79 119.51 39.39 115.48 45.64 C 112.60 51.31 103.85 51.90 100.13 46.80 C 95.56 41.23 99.07 31.35 106.55 30.78 Z" />
</g>
<g id="#000000ff">
<path fill="#000000" opacity="1.00" d=" M 182.46 9.65 C 189.09 7.45 196.89 11.49 198.84 18.20 C 201.27 25.04 196.80 33.17 189.79 34.90 C 182.78 37.06 174.84 32.02 173.53 24.88 C 172.07 18.49 176.17 11.50 182.46 9.65 M 183.33 16.38 C 179.39 18.26 178.56 24.19 181.91 27.02 C 185.43 30.72 192.49 28.20 192.84 23.10 C 193.81 18.09 187.73 13.72 183.33 16.38 Z" />
<path fill="#000000" opacity="1.00" d=" M 15.75 15.77 C 19.01 13.60 23.27 13.96 26.48 16.04 C 25.58 17.11 24.71 18.20 23.80 19.27 C 20.80 17.83 16.96 18.98 15.60 22.12 C 15.24 23.67 13.66 26.15 15.65 27.23 C 17.37 27.33 19.10 27.29 20.82 27.29 C 20.82 28.68 20.82 30.07 20.82 31.45 C 18.93 31.44 17.04 31.43 15.15 31.41 C 14.97 33.24 14.22 35.32 15.35 37.00 C 14.09 39.15 15.48 41.73 15.06 44.05 C 14.63 47.26 14.90 50.49 15.30 53.70 C 13.78 53.85 12.26 53.99 10.75 54.13 C 10.70 46.55 10.78 38.98 10.70 31.41 C 9.14 31.43 7.58 31.45 6.01 31.47 C 6.01 30.07 6.00 28.67 6.00 27.27 C 7.54 27.27 9.08 27.28 10.63 27.28 C 10.55 22.99 11.73 18.03 15.75 15.77 Z" />
<path fill="#000000" opacity="1.00" d=" M 116.82 14.73 C 118.27 14.74 119.73 14.75 121.18 14.76 C 121.19 27.80 121.15 40.83 121.19 53.86 C 119.74 53.91 118.28 53.94 116.83 53.96 C 116.80 52.75 116.78 51.54 116.76 50.34 C 111.48 56.83 100.44 55.59 96.25 48.53 C 91.19 41.30 94.68 29.95 103.17 27.20 C 107.97 25.26 113.35 27.17 116.87 30.69 C 116.78 25.37 116.84 20.05 116.82 14.73 M 106.55 30.78 C 99.07 31.35 95.56 41.23 100.13 46.80 C 103.85 51.90 112.60 51.31 115.48 45.64 C 119.51 39.39 114.14 29.79 106.55 30.78 Z" />
<path fill="#000000" opacity="1.00" d=" M 155.79 25.01 C 157.28 23.53 158.76 22.05 160.22 20.55 C 166.09 26.38 171.88 32.29 177.76 38.10 C 171.92 43.98 166.07 49.87 160.19 55.71 C 158.73 54.20 157.26 52.70 155.80 51.19 C 160.20 46.86 164.53 42.46 168.90 38.09 C 164.50 33.76 160.19 29.34 155.79 25.01 Z" />
<path fill="#000000" opacity="1.00" d=" M 39.98 32.99 C 43.17 27.41 50.70 24.81 56.57 27.58 C 60.86 29.27 63.51 33.39 64.90 37.62 C 57.82 40.70 50.47 43.11 43.26 45.89 C 45.38 48.52 48.51 50.64 52.03 50.33 C 56.16 50.18 58.99 46.74 60.79 43.38 C 61.85 44.24 63.19 44.52 64.47 44.91 C 62.24 52.19 53.60 56.85 46.43 53.70 C 38.48 50.70 35.38 40.01 39.98 32.99 M 42.12 40.12 C 41.95 40.49 41.60 41.22 41.43 41.59 C 47.62 40.36 53.30 37.32 59.25 35.27 C 57.82 33.62 56.35 31.75 54.11 31.22 C 48.46 29.11 41.83 34.15 42.12 40.12 Z" />
<path fill="#000000" opacity="1.00" d=" M 126.93 28.83 C 132.35 24.84 141.52 25.69 145.19 31.70 C 144.08 32.36 142.98 33.02 141.88 33.69 C 138.62 29.98 132.23 29.43 128.59 32.86 C 127.99 34.09 127.97 35.87 129.33 36.61 C 133.64 39.29 139.40 38.26 143.51 41.41 C 146.99 43.96 146.66 49.76 143.17 52.16 C 137.06 56.50 127.62 55.15 123.16 49.03 C 124.17 48.20 125.18 47.37 126.19 46.52 C 129.60 50.53 135.61 51.62 140.26 49.21 C 142.20 48.50 141.53 46.33 141.58 44.76 C 137.19 41.83 131.42 42.75 127.04 39.86 C 123.20 37.58 123.31 31.28 126.93 28.83 Z" />
<path fill="#000000" opacity="1.00" d=" M 23.39 27.28 C 24.76 27.27 26.13 27.27 27.49 27.27 C 27.49 28.26 27.50 30.23 27.50 31.21 C 30.44 28.29 34.44 26.87 38.57 27.22 C 38.57 28.59 38.57 29.96 38.57 31.33 C 33.65 30.99 28.77 34.35 27.61 39.18 C 27.31 44.12 27.59 49.08 27.47 54.04 C 26.12 54.03 24.77 54.03 23.42 54.03 C 23.37 45.11 23.43 36.19 23.39 27.28 Z" />
<path fill="#000000" opacity="1.00" d=" M 67.64 31.80 C 69.04 29.92 70.66 27.93 73.09 27.45 C 76.40 27.10 79.74 27.27 83.07 27.28 C 87.76 26.90 91.72 31.52 91.42 36.05 C 91.47 42.04 91.42 48.04 91.42 54.03 C 90.01 54.03 88.60 54.03 87.19 54.03 C 86.70 46.92 88.13 39.58 86.31 32.63 C 83.17 30.84 79.45 31.52 76.01 31.46 C 73.90 31.24 71.22 32.55 71.29 34.96 C 71.12 41.27 71.26 47.59 71.25 53.91 C 69.75 53.91 68.26 53.89 66.76 53.86 C 67.22 46.52 65.90 39.01 67.64 31.80 Z" />
<path fill="#000000" opacity="1.00" d=" M 176.71 48.03 C 176.80 43.06 181.26 38.74 186.22 38.72 C 191.76 38.64 197.30 38.73 202.85 38.70 C 202.84 40.89 202.84 43.08 202.85 45.28 C 197.27 45.35 191.69 45.15 186.12 45.36 C 184.32 45.36 183.05 47.19 183.26 48.90 C 183.18 54.26 183.27 59.63 183.24 65.00 C 181.05 65.00 178.86 65.00 176.67 65.00 C 176.71 59.34 176.59 53.68 176.71 48.03 Z" />
</g>
</svg>
