<?xml version="1.0" encoding="UTF-8" ?>
<!DOCTYPE svg PUBLIC "-//W3C//DTD SVG 1.1//EN" "http://www.w3.org/Graphics/SVG/1.1/DTD/svg11.dtd">
<svg width="225pt" height="225pt" viewBox="0 0 225 225" version="1.1" xmlns="http://www.w3.org/2000/svg">
<g id="#373536ff">
</g>
<g id="#ffffffff">
<path fill="#ffffff" opacity="1.00" d=" M 151.48 72.62 C 155.85 70.89 161.40 70.53 165.15 73.81 C 169.52 77.52 170.93 83.53 171.17 89.02 C 171.49 97.09 169.77 105.19 166.58 112.59 C 179.80 111.15 193.06 109.72 206.37 109.64 L 206.94 110.99 C 199.78 111.89 192.35 111.28 185.37 113.31 L 184.66 114.08 C 193.73 113.60 202.80 112.51 211.91 112.81 C 213.30 112.51 216.07 115.16 213.99 115.72 C 196.72 116.78 179.45 118.42 162.42 121.61 C 156.49 131.55 148.54 140.88 137.92 145.93 C 132.89 148.38 126.23 149.06 121.66 145.31 C 117.99 142.29 117.08 137.32 116.83 132.83 C 111.17 134.84 105.43 136.61 99.88 138.91 C 98.45 139.44 96.96 140.26 95.39 139.81 C 93.61 138.05 91.89 136.11 90.85 133.82 C 91.67 129.00 94.28 124.70 95.82 120.09 C 92.24 120.73 88.52 120.78 85.03 121.86 C 80.40 132.80 76.29 143.97 71.81 154.97 C 71.29 156.64 69.03 157.70 67.63 156.40 C 65.75 154.49 64.16 152.28 62.86 149.95 C 62.63 148.49 63.45 147.15 63.86 145.81 C 66.65 138.78 69.34 131.73 72.17 124.72 C 67.63 126.24 63.07 127.72 58.64 129.54 C 56.04 135.67 54.02 142.10 50.85 147.95 C 47.57 149.88 45.26 145.35 43.99 142.95 C 44.34 140.20 45.75 137.71 46.84 135.18 C 43.38 137.14 40.66 133.43 38.88 130.96 C 41.84 126.33 47.88 125.24 51.87 121.91 C 55.66 112.37 59.17 102.70 63.27 93.28 C 64.57 89.72 69.12 88.25 72.49 89.46 C 74.01 90.89 72.76 92.77 72.26 94.35 C 69.21 102.07 66.15 109.79 63.16 117.54 C 67.54 115.95 72.00 114.58 76.54 113.53 C 80.79 102.51 84.98 91.46 89.55 80.57 C 91.16 76.41 96.14 75.64 100.05 76.01 C 100.50 76.50 101.42 77.48 101.88 77.97 C 97.82 89.16 93.51 100.26 89.04 111.30 C 93.44 111.10 98.11 109.73 102.28 111.78 C 104.16 112.68 106.77 112.83 107.71 114.96 C 106.56 119.18 104.60 123.11 103.10 127.21 C 107.88 125.54 112.69 123.93 117.61 122.71 C 119.91 110.89 125.35 99.92 131.98 89.96 C 136.97 82.79 143.14 75.84 151.48 72.62 M 143.16 90.21 C 136.25 98.96 131.57 109.29 128.26 119.88 C 136.60 117.70 145.09 116.22 153.55 114.62 C 157.17 106.60 160.99 98.10 160.30 89.09 C 160.26 86.05 158.42 82.46 154.99 82.42 C 149.94 82.66 146.23 86.61 143.16 90.21 M 126.58 129.99 C 126.42 133.29 127.86 137.76 131.96 137.37 C 139.19 136.49 143.94 130.00 147.81 124.45 C 140.75 126.34 133.60 127.91 126.58 129.99 Z" />
<path fill="#ffffff" opacity="1.00" d=" M 112.38 86.64 C 114.39 85.82 118.05 86.01 118.17 88.82 C 115.86 94.82 113.41 100.80 110.65 106.60 C 107.34 108.94 104.11 103.87 103.57 101.08 C 105.92 96.11 106.25 88.53 112.38 86.64 Z" />
</g>
</svg>
