<!-- Generated by IcoMoon.io -->
<svg version="1.1" xmlns="http://www.w3.org/2000/svg" width="43" height="32" viewBox="0 0 43 32">
<title>arrow-location-right</title>
<path d="M36.397 17.886l-23.24 6.858c-0.419 0.128-0.784 0.030-1.093-0.301-0.038-0.041-0.087-0.111-0.148-0.208-0.128-0.22-0.173-0.454-0.13-0.7 0.040-0.247 0.152-0.454 0.333-0.624l7.134-6.653-6.651-7.132c-0.169-0.181-0.267-0.397-0.289-0.645s0.037-0.477 0.179-0.689c0.143-0.21 0.333-0.357 0.566-0.435 0.235-0.080 0.469-0.075 0.707 0.013l22.704 8.456c0.156 0.054 0.3 0.146 0.422 0.278 0.207 0.222 0.303 0.482 0.284 0.776-0.001 0.231-0.072 0.44-0.213 0.628-0.144 0.188-0.333 0.314-0.566 0.378v0z"></path>
</svg>
