<!-- Generated by IcoMoon.io -->
<svg version="1.1" xmlns="http://www.w3.org/2000/svg" width="32" height="32" viewBox="0 0 32 32">
<title>download</title>
<path fill="#0083c9" d="M0 0.778c4.613-0.148 9.231-0.094 13.844-0.034 0.566 1.132 0.985 2.358 1.762 3.362 4.352 0.158 8.709 0.010 13.061 0.059 0.133 0.3 0.409 0.901 0.542 1.201 0.010 0.886 0.025 1.772 0.039 2.658 0.916 0.034 1.836 0.069 2.752 0.108v23.089c-9.28 0.197-18.57 0.030-27.855 0.089-0.315-1.132-0.448-2.304-0.438-3.476-1.177-0.241-2.368-0.418-3.564-0.522-0.034-0.207-0.108-0.625-0.143-0.832v-25.703zM2.112 2.594c-0.049 7.754-0.113 15.513 0.020 23.262 0.394-0.015 1.177-0.039 1.57-0.054 0.113-5.873-0.059-11.751 0.094-17.625 7.818-0.305 15.655-0.010 23.478-0.148 0.025-0.62 0.044-1.246 0.064-1.866-4.372-0.162-8.748 0.030-13.12-0.103-0.33-1.172-1.118-2.156-1.359-3.362-3.579-0.167-7.163-0.005-10.747-0.103zM5.637 10.058c0.054 6.425 0.010 12.854 0.025 19.279 8.074 0.123 16.148-0.015 24.222 0.074 0.089-6.464 0-12.933 0.049-19.397-8.098 0.020-16.197-0.064-24.295 0.044z"></path>
<path fill="#0083c9" d="M16.98 12.002c0.645 0.025 1.295 0.049 1.94 0.084 0.010 2.668-0.010 5.337-0.005 8 1.083-0.128 1.585-1.201 2.21-1.945 0.586-0.251 1.167-0.507 1.748-0.768 0.054 0.935 0.394 2.343-0.807 2.698-0.586 0.734-1.241 1.403-1.959 2.004-0.29 0.359-0.61 0.684-0.965 0.985-0.177 0.108-0.532 0.33-0.709 0.438l0.010 0.394c-0.251-0.015-0.753-0.039-0.999-0.054-1.467-1.359-2.708-2.974-4.357-4.126-0.054-0.482-0.162-1.447-0.222-1.93 2.068-0.497 2.314 2.235 4.13 2.314-0.034-2.698-0.039-5.396-0.015-8.094z"></path>
<path fill="#0083c9" d="M10.156 23.97c0.615-0.039 1.236-0.074 1.856-0.108 0.039 0.655 0.074 1.314 0.113 1.969 3.746 0.025 7.493 0.020 11.239 0.005 0.143-0.679 0.384-1.329 0.596-1.984 0.458 0.020 0.921 0.039 1.383 0.059-0.010 0.241-0.025 0.714-0.034 0.955l0.463 0.030c-0.015 0.596-0.025 1.196-0.034 1.792-0.635 0.084-0.955 0.448-0.96 1.098-4.559-0.005-9.122-0.059-13.686 0.025l-0.015-0.537c-0.231 0.005-0.694 0.025-0.926 0.030-0.020-1.113-0.020-2.22 0.005-3.333z"></path>
</svg>
