<!-- Generated by IcoMoon.io -->
<svg version="1.1" xmlns="http://www.w3.org/2000/svg" width="32" height="32" viewBox="0 0 32 32">
<title>share</title>
<path d="M14.607 0.356c-2.989 0.296-5.696 1.343-8.127 3.164-0.846 0.638-2.331 2.123-2.969 2.969-1.316 1.76-2.203 3.6-2.727 5.649-0.356 1.404-0.463 2.297-0.463 3.868s0.108 2.465 0.463 3.869c0.712 2.781 2.062 5.145 4.131 7.214 2.082 2.082 4.534 3.473 7.335 4.158 1.384 0.336 2.217 0.436 3.748 0.436 1.525 0 2.344-0.094 3.748-0.436 5.132-1.249 9.317-5.058 11.083-10.082 0.276-0.766 0.584-2.049 0.732-3.009 0.161-1.055 0.161-3.231-0.007-4.299-0.531-3.52-2.008-6.475-4.473-8.933-2.935-2.929-6.603-4.5-10.747-4.601-0.611-0.013-1.384 0-1.726 0.034zM20.188 6.186c0.779 0.363 1.437 1.128 1.679 1.955 0.208 0.719 0.101 1.632-0.276 2.27-0.255 0.436-0.9 0.994-1.343 1.169-0.564 0.215-1.464 0.249-2.022 0.074l-0.416-0.134-2.922 2.116-2.922 2.109v0.786l2.915 2.116 2.922 2.109 0.389-0.128c0.524-0.181 1.491-0.141 2.055 0.074 0.531 0.208 1.189 0.826 1.458 1.377 0.43 0.867 0.416 1.679-0.047 2.586-0.699 1.357-2.123 1.988-3.526 1.552-1.256-0.389-2.042-1.545-1.988-2.922l0.020-0.584-2.808-2.042c-2.64-1.914-2.821-2.035-2.956-1.948-0.262 0.168-0.867 0.309-1.33 0.309-1.269 0-2.391-0.826-2.761-2.035-0.114-0.383-0.134-0.578-0.101-1.081 0.020-0.336 0.081-0.739 0.141-0.9 0.269-0.746 0.934-1.424 1.666-1.706 0.712-0.269 1.86-0.215 2.384 0.114 0.134 0.087 0.316-0.027 2.956-1.941l2.808-2.042-0.020-0.51c-0.060-1.303 0.739-2.458 1.975-2.868 0.611-0.202 1.477-0.148 2.069 0.127z"></path>
</svg>
