<?xml version="1.0" encoding="UTF-8" ?>
<!DOCTYPE svg PUBLIC "-//W3C//DTD SVG 1.1//EN" "http://www.w3.org/Graphics/SVG/1.1/DTD/svg11.dtd">
<svg width="1313pt" height="479pt" viewBox="0 0 1313 479" version="1.1" xmlns="http://www.w3.org/2000/svg">
<g id="#000000ff">
</g>
<g id="#ffffffff">
<path fill="#ffffff" opacity="1.00" d=" M 66.79 43.81 C 135.25 43.76 203.70 43.72 272.16 43.83 C 272.31 61.28 272.21 78.74 272.20 96.19 C 221.27 96.39 170.33 96.13 119.39 96.32 C 119.32 120.80 119.38 145.29 119.36 169.77 C 157.01 169.93 194.67 169.79 232.32 169.84 C 237.04 185.65 240.37 201.87 244.71 217.79 C 245.15 219.28 245.44 220.82 245.52 222.38 C 203.49 222.45 161.45 222.36 119.42 222.43 C 119.31 246.99 119.43 271.54 119.35 296.10 C 123.54 296.68 127.78 296.28 132.00 296.39 C 178.76 296.47 225.52 296.22 272.27 296.52 C 272.22 313.82 272.22 331.13 272.27 348.44 C 221.85 348.75 171.43 348.49 121.00 348.58 C 102.92 348.48 84.83 348.78 66.75 348.42 C 66.81 246.88 66.60 145.35 66.79 43.81 Z" />
<path fill="#ffffff" opacity="1.00" d=" M 817.49 44.40 C 819.29 44.08 821.10 43.69 822.96 43.73 C 838.45 43.77 853.93 43.73 869.41 43.76 C 870.00 60.51 869.47 77.31 869.68 94.08 C 870.20 96.35 867.45 96.22 866.03 96.24 C 852.01 96.25 838.00 96.20 823.98 96.26 C 821.78 96.33 819.63 95.94 817.49 95.60 C 817.56 78.53 817.56 61.47 817.49 44.40 Z" />
<path fill="#ffffff" opacity="1.00" d=" M 937.12 76.77 C 940.86 75.93 944.51 74.61 948.36 74.29 C 948.30 100.19 948.38 126.10 948.32 152.00 C 948.60 153.53 947.62 155.57 948.94 156.73 C 958.82 157.16 968.82 155.99 978.63 157.37 C 983.02 174.64 987.44 191.92 991.59 209.24 C 977.18 209.40 962.77 209.18 948.36 209.35 C 948.33 231.91 948.32 254.47 948.37 277.03 C 947.70 286.84 956.38 295.60 965.98 296.21 C 978.06 296.66 990.18 296.03 1002.27 296.53 C 1005.30 309.35 1008.60 322.12 1011.75 334.92 C 1012.79 339.45 1014.35 343.87 1014.77 348.52 C 997.19 348.50 979.60 348.68 962.02 348.40 C 930.63 346.47 903.34 320.94 897.19 290.45 C 896.14 284.37 895.51 278.18 895.68 272.00 C 895.66 210.45 895.74 148.90 895.64 87.36 C 899.19 85.75 903.08 85.15 906.84 84.21 C 916.93 81.70 927.03 79.29 937.12 76.77 Z" />
<path fill="#ffffff" opacity="1.00" d=" M 362.77 132.71 C 382.13 125.28 403.41 123.66 423.85 126.59 C 437.25 128.80 449.98 134.20 461.47 141.35 C 464.59 143.21 467.36 145.63 470.67 147.17 C 470.87 141.67 470.74 136.16 470.78 130.66 C 488.33 130.31 505.90 130.58 523.46 130.52 C 523.47 232.18 523.47 333.84 523.48 435.49 C 505.92 435.43 488.35 435.74 470.79 435.34 C 470.79 369.90 470.80 304.45 470.76 239.01 C 471.36 223.01 464.65 206.94 453.16 195.84 C 441.38 184.01 424.82 176.68 408.00 177.34 C 380.58 176.47 354.51 196.98 347.87 223.41 C 345.47 231.38 346.30 239.83 346.40 248.03 C 347.92 263.76 356.80 278.07 368.66 288.21 C 377.33 295.25 388.11 299.19 398.96 301.33 C 405.61 301.98 412.34 301.81 419.01 301.40 C 423.61 301.08 427.73 298.56 432.32 298.25 C 438.27 313.61 444.87 328.71 450.58 344.15 C 433.85 351.61 415.26 355.04 397.02 353.71 C 383.91 353.64 371.12 349.72 359.17 344.58 C 342.63 337.48 328.40 325.72 317.36 311.60 C 302.22 291.38 293.77 266.25 293.63 241.00 C 293.31 217.43 299.95 193.76 312.82 173.96 C 318.40 164.77 326.20 157.27 334.02 150.01 C 342.60 142.75 352.38 136.96 362.77 132.71 Z" />
<path fill="#ffffff" opacity="1.00" d=" M 1111.11 128.80 C 1134.03 123.15 1158.64 124.06 1180.96 131.87 C 1219.24 145.87 1249.14 181.58 1254.47 222.22 C 1256.14 231.68 1255.72 241.36 1255.42 250.91 C 1254.70 255.88 1254.33 260.99 1252.47 265.70 C 1196.40 265.64 1140.32 265.60 1084.25 265.72 C 1087.47 274.55 1094.10 281.77 1101.05 287.93 C 1109.90 295.09 1120.79 299.48 1131.97 301.38 C 1143.26 302.29 1154.98 301.97 1165.49 297.30 C 1168.64 296.01 1171.86 293.07 1175.44 294.80 C 1189.49 300.49 1203.58 306.07 1217.67 311.66 C 1220.75 312.97 1224.09 313.81 1226.88 315.76 C 1215.08 329.02 1200.27 339.54 1183.73 346.04 C 1172.35 350.47 1160.27 353.65 1147.99 353.66 C 1144.31 353.75 1140.66 354.58 1137.01 353.80 C 1117.44 353.98 1098.27 347.44 1081.50 337.67 C 1050.47 319.54 1029.73 285.69 1026.53 250.04 C 1026.29 240.08 1025.89 230.02 1027.72 220.17 C 1032.70 191.72 1048.40 165.05 1071.74 147.83 C 1083.47 139.04 1096.78 132.13 1111.11 128.80 M 1111.34 184.48 C 1099.59 190.90 1089.18 200.81 1084.34 213.49 C 1122.05 213.62 1159.76 213.68 1197.47 213.46 C 1195.85 208.27 1192.57 203.89 1189.25 199.68 C 1177.63 185.49 1159.44 176.63 1141.00 177.31 C 1130.69 176.90 1120.40 179.66 1111.34 184.48 Z" />
<path fill="#ffffff" opacity="1.00" d=" M 541.01 131.37 C 560.14 131.21 579.27 131.17 598.40 131.39 C 621.68 181.71 645.19 231.93 668.43 282.27 C 668.95 283.55 669.73 284.66 671.00 285.32 C 688.44 248.82 705.08 211.94 722.28 175.33 C 729.02 160.66 735.90 146.05 742.60 131.36 C 761.72 131.14 780.84 131.18 799.96 131.34 C 767.19 202.64 733.85 273.69 700.98 344.94 C 700.36 346.13 699.73 347.32 699.12 348.51 C 680.04 348.56 660.97 348.57 641.89 348.50 C 623.19 308.77 604.86 268.85 586.22 229.09 C 571.31 196.44 555.83 164.05 541.01 131.37 Z" />
<path fill="#ffffff" opacity="1.00" d=" M 817.50 131.31 C 834.80 131.06 852.12 131.45 869.42 131.11 C 869.99 144.38 869.50 157.70 869.66 171.00 C 869.66 226.66 869.66 282.33 869.66 337.99 C 869.65 341.72 869.78 345.46 869.42 349.18 C 856.28 349.06 843.13 349.16 830.00 349.12 C 825.85 349.03 821.64 349.54 817.59 348.41 C 817.42 276.05 817.62 203.68 817.50 131.31 Z" />
</g>
</svg>
