<?xml version="1.0" encoding="UTF-8"?>
<svg xmlns="http://www.w3.org/2000/svg" xmlns:xlink="http://www.w3.org/1999/xlink" width="1125pt" height="1125pt" viewBox="0 0 1125 1125" version="1.1">
<defs>
<clipPath id="clip1">
  <path d="M 0 0 L 1125 0 L 1125 1125 L 0 1125 Z M 0 0 "/>
</clipPath>
<linearGradient id="linear0" gradientUnits="userSpaceOnUse" x1="175.707031" y1="-24.871094" x2="558.570313" y2="854.722656" gradientTransform="matrix(0.75,0,0,0.75,242.5,50.25)">
<stop offset="0" style="stop-color:rgb(49.019608%,65.490196%,84.705882%);stop-opacity:1;"/>
<stop offset="0.0056" style="stop-color:rgb(49.019608%,65.490196%,84.705882%);stop-opacity:1;"/>
<stop offset="0.073" style="stop-color:rgb(20.784314%,31.764706%,48.627451%);stop-opacity:1;"/>
<stop offset="0.5" style="stop-color:rgb(87.058824%,90.196078%,96.078431%);stop-opacity:1;"/>
<stop offset="0.618" style="stop-color:rgb(72.941176%,80.392157%,91.764706%);stop-opacity:1;"/>
<stop offset="0.6648" style="stop-color:rgb(71.372549%,79.607843%,91.372549%);stop-opacity:1;"/>
<stop offset="0.7114" style="stop-color:rgb(66.666667%,76.470588%,90.196078%);stop-opacity:1;"/>
<stop offset="0.7578" style="stop-color:rgb(59.215686%,71.764706%,87.843137%);stop-opacity:1;"/>
<stop offset="0.804" style="stop-color:rgb(49.411765%,65.490196%,84.705882%);stop-opacity:1;"/>
<stop offset="0.809" style="stop-color:rgb(47.843137%,65.098039%,84.705882%);stop-opacity:1;"/>
<stop offset="1" style="stop-color:rgb(9.019608%,30.196078%,41.960784%);stop-opacity:1;"/>
</linearGradient>
<linearGradient id="linear1" gradientUnits="userSpaceOnUse" x1="39.515625" y1="34.414063" x2="422.375" y2="914.003906" gradientTransform="matrix(0.75,0,0,0.75,242.5,50.25)">
<stop offset="0" style="stop-color:rgb(49.019608%,65.490196%,84.705882%);stop-opacity:1;"/>
<stop offset="0.0056" style="stop-color:rgb(49.019608%,65.490196%,84.705882%);stop-opacity:1;"/>
<stop offset="0.073" style="stop-color:rgb(20.784314%,31.764706%,48.627451%);stop-opacity:1;"/>
<stop offset="0.5" style="stop-color:rgb(87.058824%,90.196078%,96.078431%);stop-opacity:1;"/>
<stop offset="0.618" style="stop-color:rgb(72.941176%,80.392157%,91.764706%);stop-opacity:1;"/>
<stop offset="0.6648" style="stop-color:rgb(71.372549%,79.607843%,91.372549%);stop-opacity:1;"/>
<stop offset="0.7114" style="stop-color:rgb(66.666667%,76.470588%,90.196078%);stop-opacity:1;"/>
<stop offset="0.7578" style="stop-color:rgb(59.215686%,71.764706%,87.843137%);stop-opacity:1;"/>
<stop offset="0.804" style="stop-color:rgb(49.411765%,65.490196%,84.705882%);stop-opacity:1;"/>
<stop offset="0.809" style="stop-color:rgb(47.843137%,65.098039%,84.705882%);stop-opacity:1;"/>
<stop offset="1" style="stop-color:rgb(9.019608%,30.196078%,41.960784%);stop-opacity:1;"/>
</linearGradient>
<linearGradient id="linear2" gradientUnits="userSpaceOnUse" x1="-26.988281" y1="63.335938" x2="355.882813" y2="942.953125" gradientTransform="matrix(0.75,0,0,0.75,242.5,50.25)">
<stop offset="0" style="stop-color:rgb(49.019608%,65.490196%,84.705882%);stop-opacity:1;"/>
<stop offset="0.0056" style="stop-color:rgb(49.019608%,65.490196%,84.705882%);stop-opacity:1;"/>
<stop offset="0.073" style="stop-color:rgb(20.784314%,31.764706%,48.627451%);stop-opacity:1;"/>
<stop offset="0.5" style="stop-color:rgb(87.058824%,90.196078%,96.078431%);stop-opacity:1;"/>
<stop offset="0.618" style="stop-color:rgb(72.941176%,80.392157%,91.764706%);stop-opacity:1;"/>
<stop offset="0.6648" style="stop-color:rgb(71.372549%,79.607843%,91.372549%);stop-opacity:1;"/>
<stop offset="0.7114" style="stop-color:rgb(66.666667%,76.470588%,90.196078%);stop-opacity:1;"/>
<stop offset="0.7578" style="stop-color:rgb(59.215686%,71.764706%,87.843137%);stop-opacity:1;"/>
<stop offset="0.804" style="stop-color:rgb(49.411765%,65.490196%,84.705882%);stop-opacity:1;"/>
<stop offset="0.809" style="stop-color:rgb(47.843137%,65.098039%,84.705882%);stop-opacity:1;"/>
<stop offset="1" style="stop-color:rgb(9.019608%,30.196078%,41.960784%);stop-opacity:1;"/>
</linearGradient>
<linearGradient id="linear3" gradientUnits="userSpaceOnUse" x1="218.148438" y1="1008.574219" x2="229.890625" y2="202.289063" gradientTransform="matrix(0.75,0,0,0.75,242.5,50.25)">
<stop offset="0" style="stop-color:rgb(49.019608%,65.490196%,84.705882%);stop-opacity:1;"/>
<stop offset="0.0056" style="stop-color:rgb(49.019608%,65.490196%,84.705882%);stop-opacity:1;"/>
<stop offset="0.073" style="stop-color:rgb(20.784314%,31.764706%,48.627451%);stop-opacity:1;"/>
<stop offset="0.5" style="stop-color:rgb(87.058824%,90.196078%,96.078431%);stop-opacity:1;"/>
<stop offset="0.618" style="stop-color:rgb(72.941176%,80.392157%,91.764706%);stop-opacity:1;"/>
<stop offset="0.6648" style="stop-color:rgb(71.372549%,79.607843%,91.372549%);stop-opacity:1;"/>
<stop offset="0.7114" style="stop-color:rgb(66.666667%,76.470588%,90.196078%);stop-opacity:1;"/>
<stop offset="0.7578" style="stop-color:rgb(59.215686%,71.764706%,87.843137%);stop-opacity:1;"/>
<stop offset="0.804" style="stop-color:rgb(49.411765%,65.490196%,84.705882%);stop-opacity:1;"/>
<stop offset="0.809" style="stop-color:rgb(47.843137%,65.098039%,84.705882%);stop-opacity:1;"/>
<stop offset="1" style="stop-color:rgb(9.019608%,30.196078%,41.960784%);stop-opacity:1;"/>
</linearGradient>
<linearGradient id="linear4" gradientUnits="userSpaceOnUse" x1="-16.035156" y1="-6.515625" x2="167.929688" y2="713.683594" gradientTransform="matrix(0.75,0,0,0.75,242.5,50.25)">
<stop offset="0" style="stop-color:rgb(49.019608%,65.490196%,84.705882%);stop-opacity:1;"/>
<stop offset="0.0056" style="stop-color:rgb(49.019608%,65.490196%,84.705882%);stop-opacity:1;"/>
<stop offset="0.073" style="stop-color:rgb(20.784314%,31.764706%,48.627451%);stop-opacity:1;"/>
<stop offset="0.5" style="stop-color:rgb(87.058824%,90.196078%,96.078431%);stop-opacity:1;"/>
<stop offset="0.618" style="stop-color:rgb(72.941176%,80.392157%,91.764706%);stop-opacity:1;"/>
<stop offset="0.6648" style="stop-color:rgb(71.372549%,79.607843%,91.372549%);stop-opacity:1;"/>
<stop offset="0.7114" style="stop-color:rgb(66.666667%,76.470588%,90.196078%);stop-opacity:1;"/>
<stop offset="0.7578" style="stop-color:rgb(59.215686%,71.764706%,87.843137%);stop-opacity:1;"/>
<stop offset="0.804" style="stop-color:rgb(49.411765%,65.490196%,84.705882%);stop-opacity:1;"/>
<stop offset="0.809" style="stop-color:rgb(47.843137%,65.098039%,84.705882%);stop-opacity:1;"/>
<stop offset="1" style="stop-color:rgb(9.019608%,30.196078%,41.960784%);stop-opacity:1;"/>
</linearGradient>
<linearGradient id="linear5" gradientUnits="userSpaceOnUse" x1="98.355469" y1="-35.722656" x2="282.316406" y2="684.464844" gradientTransform="matrix(0.75,0,0,0.75,242.5,50.25)">
<stop offset="0" style="stop-color:rgb(49.019608%,65.490196%,84.705882%);stop-opacity:1;"/>
<stop offset="0.0056" style="stop-color:rgb(49.019608%,65.490196%,84.705882%);stop-opacity:1;"/>
<stop offset="0.073" style="stop-color:rgb(20.784314%,31.764706%,48.627451%);stop-opacity:1;"/>
<stop offset="0.5" style="stop-color:rgb(87.058824%,90.196078%,96.078431%);stop-opacity:1;"/>
<stop offset="0.618" style="stop-color:rgb(72.941176%,80.392157%,91.764706%);stop-opacity:1;"/>
<stop offset="0.6648" style="stop-color:rgb(71.372549%,79.607843%,91.372549%);stop-opacity:1;"/>
<stop offset="0.7114" style="stop-color:rgb(66.666667%,76.470588%,90.196078%);stop-opacity:1;"/>
<stop offset="0.7578" style="stop-color:rgb(59.215686%,71.764706%,87.843137%);stop-opacity:1;"/>
<stop offset="0.804" style="stop-color:rgb(49.411765%,65.490196%,84.705882%);stop-opacity:1;"/>
<stop offset="0.809" style="stop-color:rgb(47.843137%,65.098039%,84.705882%);stop-opacity:1;"/>
<stop offset="1" style="stop-color:rgb(9.019608%,30.196078%,41.960784%);stop-opacity:1;"/>
</linearGradient>
<linearGradient id="linear6" gradientUnits="userSpaceOnUse" x1="193.871094" y1="-60.117188" x2="377.828125" y2="660.058594" gradientTransform="matrix(0.75,0,0,0.75,242.5,50.25)">
<stop offset="0" style="stop-color:rgb(49.019608%,65.490196%,84.705882%);stop-opacity:1;"/>
<stop offset="0.0056" style="stop-color:rgb(49.019608%,65.490196%,84.705882%);stop-opacity:1;"/>
<stop offset="0.073" style="stop-color:rgb(20.784314%,31.764706%,48.627451%);stop-opacity:1;"/>
<stop offset="0.5" style="stop-color:rgb(87.058824%,90.196078%,96.078431%);stop-opacity:1;"/>
<stop offset="0.618" style="stop-color:rgb(72.941176%,80.392157%,91.764706%);stop-opacity:1;"/>
<stop offset="0.6648" style="stop-color:rgb(71.372549%,79.607843%,91.372549%);stop-opacity:1;"/>
<stop offset="0.7114" style="stop-color:rgb(66.666667%,76.470588%,90.196078%);stop-opacity:1;"/>
<stop offset="0.7578" style="stop-color:rgb(59.215686%,71.764706%,87.843137%);stop-opacity:1;"/>
<stop offset="0.804" style="stop-color:rgb(49.411765%,65.490196%,84.705882%);stop-opacity:1;"/>
<stop offset="0.809" style="stop-color:rgb(47.843137%,65.098039%,84.705882%);stop-opacity:1;"/>
<stop offset="1" style="stop-color:rgb(9.019608%,30.196078%,41.960784%);stop-opacity:1;"/>
</linearGradient>
<linearGradient id="linear7" gradientUnits="userSpaceOnUse" x1="-42.957031" y1="0.378906" x2="141.007813" y2="720.5625" gradientTransform="matrix(0.75,0,0,0.75,242.5,50.25)">
<stop offset="0" style="stop-color:rgb(49.019608%,65.490196%,84.705882%);stop-opacity:1;"/>
<stop offset="0.0056" style="stop-color:rgb(49.019608%,65.490196%,84.705882%);stop-opacity:1;"/>
<stop offset="0.073" style="stop-color:rgb(20.784314%,31.764706%,48.627451%);stop-opacity:1;"/>
<stop offset="0.5" style="stop-color:rgb(87.058824%,90.196078%,96.078431%);stop-opacity:1;"/>
<stop offset="0.618" style="stop-color:rgb(72.941176%,80.392157%,91.764706%);stop-opacity:1;"/>
<stop offset="0.6648" style="stop-color:rgb(71.372549%,79.607843%,91.372549%);stop-opacity:1;"/>
<stop offset="0.7114" style="stop-color:rgb(66.666667%,76.470588%,90.196078%);stop-opacity:1;"/>
<stop offset="0.7578" style="stop-color:rgb(59.215686%,71.764706%,87.843137%);stop-opacity:1;"/>
<stop offset="0.804" style="stop-color:rgb(49.411765%,65.490196%,84.705882%);stop-opacity:1;"/>
<stop offset="0.809" style="stop-color:rgb(47.843137%,65.098039%,84.705882%);stop-opacity:1;"/>
<stop offset="1" style="stop-color:rgb(9.019608%,30.196078%,41.960784%);stop-opacity:1;"/>
</linearGradient>
<linearGradient id="linear8" gradientUnits="userSpaceOnUse" x1="1149.496094" y1="1489.105469" x2="370.597656" y2="514.507813" gradientTransform="matrix(0.75,0,0,0.75,242.5,50.25)">
<stop offset="0" style="stop-color:rgb(49.019608%,65.490196%,84.705882%);stop-opacity:1;"/>
<stop offset="0.0056" style="stop-color:rgb(49.019608%,65.490196%,84.705882%);stop-opacity:1;"/>
<stop offset="0.073" style="stop-color:rgb(20.784314%,31.764706%,48.627451%);stop-opacity:1;"/>
<stop offset="0.5" style="stop-color:rgb(87.058824%,90.196078%,96.078431%);stop-opacity:1;"/>
<stop offset="0.618" style="stop-color:rgb(72.941176%,80.392157%,91.764706%);stop-opacity:1;"/>
<stop offset="0.6648" style="stop-color:rgb(71.372549%,79.607843%,91.372549%);stop-opacity:1;"/>
<stop offset="0.7114" style="stop-color:rgb(66.666667%,76.470588%,90.196078%);stop-opacity:1;"/>
<stop offset="0.7578" style="stop-color:rgb(59.215686%,71.764706%,87.843137%);stop-opacity:1;"/>
<stop offset="0.804" style="stop-color:rgb(49.411765%,65.490196%,84.705882%);stop-opacity:1;"/>
<stop offset="0.809" style="stop-color:rgb(47.843137%,65.098039%,84.705882%);stop-opacity:1;"/>
<stop offset="1" style="stop-color:rgb(9.019608%,30.196078%,41.960784%);stop-opacity:1;"/>
</linearGradient>
</defs>
<g id="surface0">
<g clip-path="url(#clip1)" clip-rule="nonzero">
<path style=" stroke:none;fill-rule:nonzero;fill:url(#linear0);" d="M 725.109375 621.246094 C 725.109375 621.128906 725.109375 621.015625 725.117188 620.886719 C 725.125 620.054688 725.125 619.238281 725.132813 618.40625 C 725.164063 615.808594 725.199219 613.207031 725.191406 610.621094 C 725.191406 610.453125 725.183594 610.296875 725.183594 610.125 C 725.183594 608.714844 725.148438 607.320313 725.140625 605.910156 C 725.117188 603.960938 725.109375 602.003906 725.074219 600.058594 C 725.074219 599.949219 725.066406 599.835938 725.066406 599.722656 C 725.058594 599.609375 725.058594 599.503906 725.058594 599.386719 C 725.050781 599.273438 725.050781 599.160156 725.050781 599.054688 C 725.042969 598.941406 725.042969 598.828125 725.035156 598.71875 L 597.902344 580.050781 C 597.96875 581.773438 598.007813 583.515625 598.050781 585.253906 C 598.097656 586.792969 598.148438 588.324219 598.179688 589.867188 C 598.203125 591.699219 598.203125 593.535156 598.210938 595.371094 C 598.210938 596.59375 598.234375 597.808594 598.226563 599.03125 C 598.210938 601.785156 598.15625 604.550781 598.089844 607.320313 C 598.074219 607.65625 598.074219 607.996094 598.066406 608.332031 C 597.984375 611.429688 597.863281 614.527344 597.714844 617.640625 C 597.519531 621.613281 597.257813 625.621094 596.949219 629.632813 C 596.875 630.710938 596.777344 631.785156 596.695313 632.859375 C 596.425781 636.039063 596.132813 639.234375 595.800781 642.433594 C 595.703125 643.402344 595.609375 644.355469 595.503906 645.328125 C 595.066406 649.34375 594.574219 653.378906 594.023438 657.421875 C 593.925781 658.183594 593.808594 658.949219 593.703125 659.714844 C 593.230469 663.074219 592.71875 666.441406 592.171875 669.816406 C 591.925781 671.347656 591.683594 672.878906 591.421875 674.398438 C 591.242188 675.472656 591.054688 676.539063 590.867188 677.601563 C 590.484375 679.761719 590.078125 681.929688 589.667969 684.089844 C 589.496094 684.976563 589.335938 685.851563 589.164063 686.738281 C 588.574219 689.753906 587.957031 692.78125 587.304688 695.804688 C 587.207031 696.261719 587.101563 696.726563 586.996094 697.183594 C 586.441406 699.75 585.859375 702.324219 585.257813 704.902344 C 585.011719 705.96875 584.753906 707.039063 584.492188 708.113281 C 584.003906 710.136719 583.511719 712.171875 583 714.203125 C 582.707031 715.335938 582.421875 716.46875 582.128906 717.601563 C 581.597656 719.664063 581.042969 721.726563 580.480469 723.800781 C 580.203125 724.828125 579.925781 725.859375 579.632813 726.890625 C 578.792969 729.945313 577.914063 732.996094 577.007813 736.058594 L 701.238281 782.503906 C 702.226563 778.84375 703.1875 775.175781 704.117188 771.523438 C 704.394531 770.429688 704.664063 769.34375 704.933594 768.253906 C 705.355469 766.582031 705.78125 764.910156 706.1875 763.238281 C 706.414063 762.316406 706.621094 761.398438 706.839844 760.476563 C 707.140625 759.21875 707.433594 757.964844 707.726563 756.710938 C 708.308594 754.207031 708.871094 751.71875 709.425781 749.226563 C 709.691406 748.042969 709.953125 746.871094 710.207031 745.703125 C 710.320313 745.175781 710.449219 744.644531 710.558594 744.121094 C 711.113281 741.511719 711.648438 738.898438 712.179688 736.289063 C 712.261719 735.878906 712.359375 735.464844 712.441406 735.050781 C 712.449219 734.984375 712.464844 734.925781 712.472656 734.859375 C 713.125 731.617188 713.746094 728.386719 714.347656 725.160156 C 714.40625 724.824219 714.476563 724.484375 714.527344 724.140625 C 714.722656 723.097656 714.902344 722.0625 715.089844 721.019531 C 715.546875 718.449219 715.996094 715.882813 716.425781 713.324219 C 716.636719 712.117188 716.824219 710.910156 717.015625 709.703125 C 717.199219 708.585938 717.390625 707.476563 717.574219 706.359375 C 717.683594 705.609375 717.773438 704.859375 717.894531 704.109375 C 718.496094 700.15625 719.066406 696.226563 719.597656 692.296875 C 719.6875 691.621094 719.808594 690.9375 719.890625 690.253906 C 719.921875 690.039063 719.941406 689.820313 719.972656 689.609375 C 720.015625 689.257813 720.070313 688.914063 720.113281 688.558594 C 720.683594 684.128906 721.195313 679.703125 721.675781 675.300781 C 721.710938 674.960938 721.757813 674.617188 721.796875 674.28125 C 721.871094 673.546875 721.921875 672.824219 721.996094 672.097656 C 722.386719 668.28125 722.746094 664.476563 723.070313 660.683594 C 723.121094 659.933594 723.21875 659.175781 723.273438 658.425781 C 723.316406 657.921875 723.339844 657.425781 723.378906 656.925781 C 723.738281 652.296875 724.066406 647.683594 724.316406 643.085938 C 724.324219 643.011719 724.324219 642.9375 724.328125 642.863281 C 724.328125 642.808594 724.335938 642.757813 724.34375 642.703125 C 724.539063 639.105469 724.699219 635.519531 724.824219 631.941406 C 724.824219 631.941406 724.824219 631.925781 724.824219 631.925781 C 724.839844 631.507813 724.839844 631.101563 724.863281 630.683594 C 724.960938 627.53125 725.058594 624.382813 725.109375 621.246094 Z M 725.109375 621.246094 "/>
<path style=" stroke:none;fill-rule:nonzero;fill:url(#linear1);" d="M 518.011719 592.148438 C 516.65625 595.035156 515.261719 597.90625 513.835938 600.773438 C 513.363281 601.71875 512.867188 602.648438 512.394531 603.585938 C 511.421875 605.488281 510.453125 607.402344 509.453125 609.292969 C 508.800781 610.523438 508.128906 611.738281 507.46875 612.960938 C 506.605469 614.550781 505.75 616.15625 504.863281 617.738281 C 504.121094 619.058594 503.363281 620.371094 502.613281 621.683594 C 501.761719 623.167969 500.914063 624.660156 500.042969 626.136719 C 499.261719 627.464844 498.453125 628.777344 497.664063 630.097656 C 496.757813 631.582031 495.863281 633.074219 494.949219 634.558594 C 494.15625 635.828125 493.335938 637.101563 492.535156 638.371094 C 491.566406 639.890625 490.601563 641.40625 489.609375 642.914063 C 488.800781 644.160156 487.96875 645.398438 487.136719 646.636719 C 486.121094 648.15625 485.09375 649.679688 484.058594 651.1875 C 483.210938 652.425781 482.34375 653.65625 481.480469 654.886719 C 480.40625 656.40625 479.328125 657.929688 478.238281 659.4375 C 477.484375 660.488281 476.71875 661.53125 475.945313 662.574219 C 474.753906 664.183594 473.550781 665.796875 472.328125 667.410156 C 471.535156 668.453125 470.738281 669.496094 469.9375 670.539063 C 468.707031 672.136719 467.449219 673.71875 466.195313 675.300781 C 465.386719 676.320313 464.582031 677.332031 463.757813 678.34375 C 462.390625 680.039063 460.988281 681.71875 459.578125 683.40625 C 458.851563 684.285156 458.132813 685.164063 457.390625 686.039063 C 455.523438 688.246094 453.617188 690.425781 451.699219 692.609375 C 451.398438 692.949219 451.121094 693.285156 450.820313 693.621094 C 448.5625 696.164063 446.261719 698.699219 443.921875 701.210938 C 443.246094 701.941406 442.546875 702.660156 441.871094 703.378906 C 440.191406 705.164063 438.503906 706.941406 436.789063 708.710938 C 435.886719 709.628906 434.980469 710.542969 434.074219 711.457031 C 432.152344 713.40625 430.226563 715.351563 428.253906 717.277344 L 428.253906 717.277344 C 425.605469 719.859375 422.921875 722.421875 420.191406 724.957031 C 420.648438 725.191406 421.097656 725.421875 421.554688 725.65625 C 421.765625 725.761719 421.96875 725.863281 422.175781 725.960938 C 422.273438 726.015625 422.371094 726.066406 422.46875 726.113281 C 422.539063 726.148438 422.597656 726.179688 422.664063 726.210938 C 422.753906 726.253906 422.835938 726.300781 422.921875 726.335938 C 423.378906 726.570313 423.835938 726.796875 424.285156 727.019531 C 424.359375 727.050781 424.433594 727.085938 424.503906 727.117188 C 424.585938 727.164063 424.667969 727.207031 424.75 727.246094 C 424.871094 727.296875 424.984375 727.359375 425.09375 727.417969 C 425.28125 727.507813 425.46875 727.597656 425.65625 727.6875 C 425.957031 727.828125 426.265625 727.980469 426.574219 728.121094 C 426.878906 728.273438 427.179688 728.414063 427.488281 728.558594 C 427.796875 728.707031 428.101563 728.851563 428.402344 728.992188 C 428.710938 729.136719 429.015625 729.277344 429.324219 729.421875 C 467.460938 747.03125 505.601563 764.648438 543.746094 782.257813 C 542.988281 781.914063 542.238281 781.550781 541.488281 781.199219 C 541.34375 781.132813 541.203125 781.066406 541.058594 780.988281 C 540.316406 780.636719 539.582031 780.277344 538.839844 779.917969 C 538.800781 779.902344 538.757813 779.878906 538.71875 779.863281 C 537.984375 779.496094 537.25 779.128906 536.523438 778.761719 C 536.3125 778.65625 536.101563 778.550781 535.898438 778.449219 C 535.195313 778.085938 534.488281 777.726563 533.785156 777.359375 C 534.804688 776.289063 535.808594 775.214844 536.816406 774.140625 C 537.8125 773.0625 538.800781 771.984375 539.792969 770.910156 C 540.78125 769.828125 541.765625 768.75 542.738281 767.671875 C 543.714844 766.589844 544.683594 765.511719 545.648438 764.429688 C 546.835938 763.09375 547.988281 761.746094 549.160156 760.402344 C 550.140625 759.269531 551.148438 758.144531 552.121094 757.003906 C 554.011719 754.808594 555.859375 752.59375 557.703125 750.390625 C 558.460938 749.476563 559.234375 748.582031 559.984375 747.667969 C 560.125 747.496094 560.28125 747.316406 560.425781 747.136719 C 562.839844 744.195313 565.210938 741.246094 567.550781 738.277344 C 567.585938 738.234375 567.625 738.179688 567.664063 738.136719 C 568.074219 737.617188 568.464844 737.085938 568.878906 736.566406 C 570.671875 734.265625 572.460938 731.960938 574.21875 729.644531 C 574.40625 729.398438 574.585938 729.136719 574.78125 728.886719 C 575.605469 727.785156 576.421875 726.675781 577.238281 725.566406 C 578.761719 723.515625 580.277344 721.46875 581.761719 719.414063 C 582.675781 718.148438 583.570313 716.878906 584.46875 715.613281 C 585.332031 714.390625 586.21875 713.183594 587.066406 711.960938 C 587.558594 711.261719 588.03125 710.542969 588.519531 709.835938 C 589.421875 708.523438 590.304688 707.21875 591.199219 705.914063 C 592.503906 703.972656 593.800781 702.039063 595.082031 700.09375 C 595.570313 699.359375 596.074219 698.632813 596.550781 697.898438 C 596.925781 697.328125 597.28125 696.742188 597.65625 696.164063 C 598.097656 695.484375 598.5625 694.792969 599.003906 694.101563 C 599.71875 692.992188 600.398438 691.867188 601.105469 690.757813 C 602.078125 689.203125 603.0625 687.652344 604.023438 686.09375 C 605.117188 684.316406 606.199219 682.53125 607.269531 680.738281 C 608.207031 679.171875 609.160156 677.59375 610.089844 676.019531 C 610.375 675.53125 610.675781 675.046875 610.960938 674.558594 C 611.71875 673.261719 612.445313 671.949219 613.195313 670.640625 C 614.085938 669.074219 614.988281 667.515625 615.871094 665.941406 C 616.890625 664.109375 617.882813 662.28125 618.878906 660.449219 C 619.546875 659.21875 620.246094 657.996094 620.898438 656.761719 C 621.070313 656.429688 621.242188 656.09375 621.414063 655.761719 C 621.585938 655.449219 621.761719 655.132813 621.925781 654.824219 C 622.75 653.265625 623.539063 651.699219 624.339844 650.136719 C 625.105469 648.644531 625.890625 647.152344 626.648438 645.652344 C 627.65625 643.664063 628.628906 641.65625 629.605469 639.660156 C 630.300781 638.242188 631.007813 636.832031 631.683594 635.398438 C 631.773438 635.234375 631.855469 635.0625 631.9375 634.898438 C 632.914063 632.84375 633.851563 630.789063 634.796875 628.726563 C 635.351563 627.523438 635.925781 626.332031 636.46875 625.125 C 638.019531 621.691406 639.542969 618.238281 641.011719 614.78125 L 518.011719 592.148438 Z M 518.011719 592.148438 "/>
<path style=" stroke:none;fill-rule:nonzero;fill:url(#linear2);" d="M 556.523438 552.9375 C 559.546875 551.234375 562.53125 549.488281 565.480469 547.703125 L 447.226563 535.066406 C 444.496094 536.550781 441.730469 537.988281 438.925781 539.398438 C 438.167969 539.773438 437.402344 540.128906 436.644531 540.496094 C 434.605469 541.5 432.566406 542.503906 430.488281 543.464844 C 429.203125 544.058594 427.898438 544.621094 426.609375 545.199219 C 424.988281 545.917969 423.390625 546.644531 421.765625 547.34375 C 420.46875 547.898438 419.148438 548.414063 417.84375 548.953125 C 416.148438 549.652344 414.46875 550.359375 412.757813 551.03125 C 412.203125 551.242188 411.648438 551.445313 411.101563 551.648438 C 408.804688 552.539063 406.496094 553.394531 404.15625 554.234375 C 403.164063 554.585938 402.167969 554.933594 401.164063 555.285156 C 399.199219 555.96875 397.21875 556.636719 395.222656 557.289063 C 394.171875 557.632813 393.121094 557.96875 392.066406 558.308594 C 389.957031 558.976563 387.835938 559.613281 385.703125 560.242188 C 384.773438 560.519531 383.851563 560.796875 382.921875 561.058594 C 380.066406 561.878906 377.183594 562.664063 374.265625 563.414063 C 373.621094 563.578125 372.960938 563.738281 372.316406 563.902344 C 369.738281 564.554688 367.148438 565.171875 364.539063 565.769531 C 363.863281 565.921875 363.199219 566.085938 362.515625 566.234375 C 359.402344 566.925781 356.253906 567.585938 353.074219 568.207031 C 352.5625 568.304688 352.039063 568.402344 351.535156 568.492188 C 348.378906 569.101563 345.199219 569.675781 341.988281 570.203125 C 341.835938 570.234375 341.695313 570.253906 341.546875 570.277344 C 338.28125 570.808594 334.976563 571.296875 331.644531 571.753906 C 331 571.84375 330.355469 571.933594 329.703125 572.015625 C 326.394531 572.453125 323.058594 572.859375 319.699219 573.226563 C 319.140625 573.277344 318.585938 573.335938 318.039063 573.398438 C 314.597656 573.75 311.125 574.074219 307.621094 574.34375 C 307.171875 574.378906 306.722656 574.410156 306.273438 574.449219 C 302.734375 574.710938 299.171875 574.933594 295.570313 575.113281 C 295.253906 575.128906 294.949219 575.144531 294.632813 575.160156 C 290.746094 575.347656 286.824219 575.488281 282.863281 575.574219 L 380.792969 600.03125 C 382.667969 599.941406 384.535156 599.859375 386.386719 599.761719 C 388.246094 599.65625 390.09375 599.550781 391.929688 599.421875 C 392.738281 599.371094 393.535156 599.308594 394.34375 599.25 C 394.675781 599.226563 395.019531 599.203125 395.359375 599.183594 C 396.039063 599.128906 396.722656 599.09375 397.40625 599.03125 C 399.21875 598.898438 401.027344 598.746094 402.820313 598.589844 C 404.441406 598.441406 406.046875 598.273438 407.648438 598.117188 C 408.160156 598.066406 408.675781 598.019531 409.195313 597.96875 C 409.578125 597.929688 409.976563 597.890625 410.359375 597.855469 C 412.847656 597.59375 415.324219 597.308594 417.78125 597.007813 C 418.863281 596.871094 419.925781 596.730469 421.007813 596.578125 C 421.691406 596.496094 422.378906 596.40625 423.0625 596.316406 C 423.738281 596.226563 424.414063 596.144531 425.078125 596.054688 C 427.496094 595.71875 429.886719 595.363281 432.273438 594.988281 C 432.984375 594.878906 433.683594 594.757813 434.394531 594.636719 C 434.710938 594.585938 435.03125 594.546875 435.347656 594.496094 C 435.765625 594.425781 436.179688 594.335938 436.601563 594.269531 C 437.703125 594.089844 438.820313 593.910156 439.921875 593.722656 C 442.441406 593.28125 444.941406 592.816406 447.4375 592.335938 C 447.542969 592.304688 447.65625 592.28125 447.761719 592.261719 C 447.96875 592.222656 448.171875 592.175781 448.390625 592.140625 C 450.542969 591.710938 452.6875 591.285156 454.816406 590.828125 C 456.234375 590.527344 457.628906 590.199219 459.03125 589.882813 C 459.640625 589.746094 460.238281 589.621094 460.847656 589.484375 C 461.261719 589.386719 461.671875 589.296875 462.078125 589.207031 C 464.769531 588.578125 467.441406 587.933594 470.085938 587.25 C 470.539063 587.128906 470.988281 587.011719 471.4375 586.890625 C 472.1875 586.695313 472.9375 586.492188 473.6875 586.296875 C 475.105469 585.914063 476.539063 585.546875 477.941406 585.164063 C 479.476563 584.730469 480.992188 584.28125 482.515625 583.835938 C 482.996094 583.695313 483.488281 583.574219 483.960938 583.433594 C 484.195313 583.363281 484.414063 583.289063 484.644531 583.222656 C 484.976563 583.125 485.3125 583.035156 485.640625 582.929688 C 488.175781 582.164063 490.699219 581.386719 493.195313 580.574219 C 493.554688 580.453125 493.90625 580.328125 494.265625 580.214844 C 495.355469 579.855469 496.425781 579.480469 497.507813 579.113281 C 499.074219 578.585938 500.65625 578.070313 502.203125 577.523438 C 502.96875 577.261719 503.71875 576.96875 504.476563 576.691406 C 505.667969 576.261719 506.851563 575.820313 508.039063 575.386719 C 509.027344 575.015625 510.015625 574.664063 511 574.289063 C 512.214844 573.824219 513.40625 573.328125 514.609375 572.859375 C 515.734375 572.40625 516.863281 571.972656 517.976563 571.515625 C 518.515625 571.296875 519.054688 571.09375 519.585938 570.871094 C 521.621094 570.039063 523.621094 569.160156 525.632813 568.289063 C 526.148438 568.058594 526.675781 567.855469 527.183594 567.628906 C 527.296875 567.585938 527.394531 567.53125 527.5 567.488281 C 527.65625 567.421875 527.808594 567.351563 527.964844 567.285156 C 529.796875 566.476563 531.585938 565.613281 533.394531 564.773438 C 534.722656 564.148438 536.078125 563.550781 537.40625 562.914063 C 537.527344 562.851563 537.65625 562.800781 537.773438 562.746094 C 539.671875 561.824219 541.539063 560.859375 543.40625 559.90625 C 544.613281 559.296875 545.84375 558.710938 547.039063 558.089844 C 547.121094 558.050781 547.203125 558.007813 547.292969 557.960938 C 549.167969 556.980469 550.996094 555.953125 552.84375 554.949219 C 554.035156 554.296875 555.25 553.65625 556.425781 552.996094 C 556.457031 552.976563 556.496094 552.960938 556.523438 552.9375 Z M 556.523438 552.9375 "/>
<path style=" stroke:none;fill-rule:nonzero;fill:url(#linear3);" d="M 290.492188 277.117188 C 290.648438 277.132813 290.808594 277.140625 290.957031 277.15625 C 294.976563 277.449219 298.976563 277.800781 302.933594 278.199219 C 303.296875 278.234375 303.65625 278.273438 304.015625 278.308594 C 307.988281 278.722656 311.941406 279.171875 315.859375 279.691406 C 315.878906 279.691406 315.902344 279.699219 315.925781 279.699219 C 319.765625 280.207031 323.558594 280.753906 327.339844 281.363281 C 327.640625 281.40625 327.933594 281.453125 328.226563 281.496094 C 331.976563 282.105469 335.679688 282.75 339.371094 283.449219 C 339.535156 283.476563 339.707031 283.515625 339.878906 283.546875 C 347.449219 284.992188 354.886719 286.628906 362.183594 288.457031 C 362.328125 288.496094 362.484375 288.53125 362.636719 288.570313 C 366.085938 289.441406 369.511719 290.355469 372.910156 291.316406 C 373.171875 291.382813 373.441406 291.457031 373.703125 291.539063 C 377.050781 292.484375 380.359375 293.476563 383.640625 294.503906 C 383.882813 294.578125 384.128906 294.660156 384.371094 294.734375 C 387.683594 295.785156 390.976563 296.871094 394.226563 297.996094 C 394.375 298.058594 394.515625 298.109375 394.667969 298.164063 C 397.945313 299.300781 401.191406 300.488281 404.394531 301.71875 C 404.5 301.753906 404.597656 301.792969 404.703125 301.828125 C 407.824219 303.03125 410.914063 304.265625 413.972656 305.542969 C 414.199219 305.632813 414.421875 305.730469 414.648438 305.820313 C 417.664063 307.085938 420.640625 308.386719 423.585938 309.71875 C 423.789063 309.816406 424.007813 309.914063 424.21875 310.003906 C 427.195313 311.371094 430.140625 312.765625 433.058594 314.199219 C 433.179688 314.257813 433.300781 314.316406 433.425781 314.378906 C 436.433594 315.863281 439.40625 317.386719 442.328125 318.945313 L 562.585938 285.976563 C 561.675781 285.40625 560.753906 284.835938 559.832031 284.273438 C 558.910156 283.710938 557.980469 283.148438 557.050781 282.59375 C 556.121094 282.03125 555.175781 281.476563 554.246094 280.921875 C 553.773438 280.640625 553.292969 280.378906 552.820313 280.101563 C 552.707031 280.035156 552.585938 279.96875 552.46875 279.898438 C 552.113281 279.691406 551.761719 279.488281 551.402344 279.277344 C 550.203125 278.585938 549.003906 277.914063 547.796875 277.238281 C 546.578125 276.554688 545.363281 275.886719 544.140625 275.21875 C 543.671875 274.964844 543.191406 274.710938 542.71875 274.460938 C 542.515625 274.351563 542.3125 274.246094 542.109375 274.132813 C 541.554688 273.839844 541 273.539063 540.445313 273.238281 C 539.199219 272.585938 537.953125 271.933594 536.703125 271.296875 C 535.457031 270.652344 534.203125 270.023438 532.945313 269.386719 C 532.683594 269.257813 532.421875 269.128906 532.15625 268.996094 C 531.96875 268.90625 531.789063 268.824219 531.601563 268.734375 C 530.785156 268.320313 529.96875 267.914063 529.136719 267.511719 C 527.859375 266.894531 526.578125 266.28125 525.289063 265.671875 C 523.996094 265.066406 522.699219 264.464844 521.394531 263.863281 C 521.34375 263.84375 521.289063 263.820313 521.238281 263.796875 C 521.207031 263.78125 521.183594 263.765625 521.164063 263.761719 C 521.125 263.738281 521.078125 263.722656 521.035156 263.707031 C 519.851563 263.160156 518.648438 262.621094 517.449219 262.085938 C 516.136719 261.503906 514.800781 260.925781 513.46875 260.347656 C 512.328125 259.859375 511.1875 259.371094 510.039063 258.898438 C 509.925781 258.855469 509.828125 258.808594 509.71875 258.765625 C 509.628906 258.71875 509.53125 258.683594 509.441406 258.644531 C 508.089844 258.074219 506.738281 257.527344 505.375 256.972656 C 503.996094 256.417969 502.613281 255.871094 501.226563 255.324219 C 500.34375 254.984375 499.449219 254.640625 498.558594 254.300781 C 498.363281 254.226563 498.167969 254.160156 497.980469 254.078125 C 497.664063 253.957031 497.351563 253.828125 497.042969 253.71875 C 495.632813 253.191406 494.222656 252.667969 492.804688 252.148438 C 491.386719 251.632813 489.960938 251.113281 488.523438 250.613281 C 487.921875 250.402344 487.308594 250.199219 486.707031 249.988281 C 486.453125 249.898438 486.199219 249.808594 485.941406 249.726563 C 485.351563 249.515625 484.75 249.316406 484.148438 249.105469 C 482.6875 248.601563 481.210938 248.113281 479.726563 247.636719 C 478.246094 247.148438 476.753906 246.675781 475.261719 246.203125 C 474.96875 246.113281 474.675781 246.023438 474.390625 245.933594 C 474.316406 245.910156 474.242188 245.886719 474.167969 245.863281 C 474.070313 245.828125 473.957031 245.804688 473.851563 245.765625 C 472.816406 245.445313 471.78125 245.121094 470.746094 244.816406 C 469.203125 244.34375 467.664063 243.890625 466.113281 243.441406 C 464.550781 242.992188 462.992188 242.558594 461.425781 242.113281 C 459.859375 241.6875 458.273438 241.253906 456.691406 240.832031 C 455.101563 240.414063 453.503906 240.007813 451.90625 239.601563 C 450.851563 239.332031 449.777344 239.078125 448.710938 238.816406 C 448.488281 238.761719 448.261719 238.703125 448.046875 238.648438 C 447.683594 238.558594 447.332031 238.46875 446.972656 238.386719 C 445.324219 237.988281 443.65625 237.601563 441.992188 237.21875 C 440.320313 236.84375 438.640625 236.46875 436.953125 236.101563 C 436.425781 235.996094 435.894531 235.882813 435.371094 235.769531 C 435.078125 235.710938 434.785156 235.648438 434.492188 235.582031 C 433.613281 235.402344 432.746094 235.214844 431.859375 235.035156 C 430.113281 234.683594 428.351563 234.335938 426.578125 233.992188 C 424.863281 233.671875 423.128906 233.347656 421.390625 233.03125 C 421.382813 233.03125 421.375 233.03125 421.367188 233.03125 C 421.359375 233.03125 421.359375 233.023438 421.351563 233.023438 C 421.316406 233.023438 421.285156 233.015625 421.246094 233.003906 C 419.460938 232.695313 417.664063 232.371094 415.863281 232.078125 C 414.054688 231.773438 412.234375 231.488281 410.410156 231.203125 C 409.496094 231.058594 408.566406 230.933594 407.636719 230.789063 C 407.28125 230.738281 406.929688 230.683594 406.570313 230.632813 C 405.960938 230.542969 405.347656 230.445313 404.738281 230.363281 C 402.828125 230.09375 400.914063 229.828125 399.003906 229.582031 C 397.074219 229.328125 395.140625 229.085938 393.199219 228.863281 C 393.023438 228.839844 392.859375 228.824219 392.6875 228.800781 C 392.507813 228.78125 392.328125 228.765625 392.140625 228.742188 C 390.550781 228.5625 388.945313 228.375 387.339844 228.210938 C 385.316406 227.992188 383.28125 227.789063 381.242188 227.601563 C 380.265625 227.511719 379.285156 227.4375 378.300781 227.355469 C 377.90625 227.316406 377.5 227.28125 377.101563 227.25 C 376.425781 227.183594 375.753906 227.121094 375.078125 227.070313 C 373.007813 226.90625 370.929688 226.746094 368.84375 226.605469 C 366.761719 226.46875 364.660156 226.34375 362.550781 226.222656 L 264.949219 275.984375 C 269.15625 276.058594 273.324219 276.1875 277.472656 276.367188 C 277.832031 276.390625 278.199219 276.40625 278.558594 276.421875 C 282.566406 276.609375 286.539063 276.832031 290.492188 277.117188 Z M 290.492188 277.117188 "/>
<path style=" stroke:none;fill-rule:nonzero;fill:url(#linear4);" d="M 486.707031 745.648438 C 486.078125 745.109375 485.433594 744.578125 484.796875 744.03125 C 482.816406 742.351563 480.851563 740.640625 478.886719 738.890625 C 478.457031 738.511719 478.03125 738.136719 477.601563 737.753906 C 475.253906 735.636719 472.9375 733.460938 470.628906 731.257813 C 470.074219 730.726563 469.523438 730.183594 468.976563 729.652344 C 467.09375 727.824219 465.226563 725.96875 463.367188 724.074219 C 462.820313 723.511719 462.265625 722.960938 461.71875 722.390625 C 459.429688 720.039063 457.15625 717.628906 454.90625 715.171875 C 454.515625 714.742188 454.128906 714.300781 453.738281 713.871094 C 451.75 711.683594 449.785156 709.453125 447.835938 707.191406 C 447.40625 706.703125 446.988281 706.222656 446.574219 705.734375 C 444.414063 703.207031 442.285156 700.640625 440.171875 698.03125 C 439.726563 697.476563 439.285156 696.921875 438.84375 696.367188 C 436.667969 693.644531 434.507813 690.890625 432.378906 688.078125 C 430.238281 685.261719 428.148438 682.378906 426.0625 679.46875 C 425.5 678.691406 424.9375 677.894531 424.382813 677.109375 C 422.523438 674.46875 420.675781 671.804688 418.863281 669.097656 C 418.621094 668.746094 418.382813 668.398438 418.148438 668.046875 C 416.125 665.015625 414.136719 661.921875 412.164063 658.792969 C 411.675781 658.035156 411.203125 657.261719 410.726563 656.496094 C 408.894531 653.558594 407.085938 650.59375 405.308594 647.574219 C 405.152344 647.308594 404.988281 647.039063 404.828125 646.769531 C 402.910156 643.5 401.027344 640.171875 399.167969 636.824219 C 398.726563 636.03125 398.296875 635.234375 397.855469 634.433594 C 396.070313 631.171875 394.300781 627.871094 392.582031 624.523438 C 392.5 624.375 392.425781 624.234375 392.34375 624.082031 C 390.566406 620.625 388.832031 617.113281 387.113281 613.574219 C 386.6875 612.667969 386.238281 611.761719 385.808594 610.851563 C 384.109375 607.273438 382.425781 603.675781 380.792969 600.023438 L 282.863281 575.574219 C 284.800781 579.578125 286.808594 583.507813 288.863281 587.40625 C 289.082031 587.835938 289.285156 588.269531 289.511719 588.691406 C 289.898438 589.433594 290.328125 590.144531 290.726563 590.871094 C 291.511719 592.34375 292.277344 593.835938 293.085938 595.289063 C 293.84375 596.640625 294.625 597.96875 295.398438 599.300781 C 295.789063 599.992188 296.148438 600.699219 296.539063 601.371094 C 296.800781 601.816406 297.078125 602.242188 297.339844 602.691406 C 299.328125 606.105469 301.359375 609.464844 303.4375 612.789063 C 303.609375 613.058594 303.761719 613.34375 303.933594 613.605469 C 303.960938 613.65625 303.992188 613.703125 304.03125 613.753906 C 304.074219 613.835938 304.128906 613.914063 304.171875 613.996094 C 306.398438 617.519531 308.6875 620.96875 311.003906 624.382813 C 311.230469 624.710938 311.441406 625.058594 311.65625 625.378906 C 313.015625 627.359375 314.378906 629.316406 315.765625 631.261719 C 315.820313 631.335938 315.878906 631.410156 315.933594 631.484375 C 315.960938 631.53125 315.992188 631.582031 316.023438 631.621094 C 316.15625 631.808594 316.300781 631.988281 316.425781 632.175781 C 317.597656 633.796875 318.765625 635.421875 319.953125 637.019531 C 320.453125 637.6875 320.964844 638.347656 321.476563 639.015625 C 321.949219 639.644531 322.421875 640.265625 322.898438 640.898438 C 323.34375 641.46875 323.777344 642.058594 324.21875 642.636719 C 325.652344 644.488281 327.101563 646.3125 328.554688 648.128906 C 329.835938 649.71875 331.136719 651.292969 332.441406 652.851563 C 333.078125 653.609375 333.722656 654.359375 334.367188 655.117188 C 334.75 655.558594 335.125 656.011719 335.507813 656.453125 C 335.800781 656.78125 336.085938 657.128906 336.371094 657.464844 C 337.691406 658.988281 339.015625 660.488281 340.351563 661.972656 C 340.636719 662.296875 340.929688 662.609375 341.222656 662.925781 C 341.378906 663.097656 341.53125 663.277344 341.679688 663.449219 C 341.925781 663.710938 342.175781 663.96875 342.421875 664.230469 C 343.074219 664.941406 343.726563 665.671875 344.378906 666.375 C 345.429688 667.5 346.503906 668.609375 347.558594 669.710938 C 347.949219 670.117188 348.332031 670.53125 348.722656 670.933594 C 350.449219 672.71875 352.1875 674.476563 353.941406 676.207031 C 354.226563 676.484375 354.503906 676.746094 354.789063 677.015625 C 354.96875 677.199219 355.140625 677.378906 355.324219 677.558594 C 355.660156 677.886719 356.011719 678.195313 356.351563 678.523438 C 357.984375 680.109375 359.636719 681.660156 361.292969 683.191406 C 361.808594 683.671875 362.320313 684.140625 362.835938 684.613281 C 363.136719 684.886719 363.429688 685.164063 363.722656 685.433594 C 365.523438 687.050781 367.335938 688.640625 369.160156 690.210938 C 369.234375 690.277344 369.316406 690.351563 369.398438 690.421875 C 369.648438 690.636719 369.902344 690.839844 370.15625 691.058594 C 371.335938 692.054688 372.503906 693.058594 373.691406 694.042969 C 374.335938 694.566406 374.988281 695.078125 375.632813 695.601563 C 376.203125 696.066406 376.765625 696.523438 377.335938 696.984375 C 379.496094 698.699219 381.648438 700.386719 383.835938 702.03125 L 493.886719 751.460938 C 491.476563 749.578125 489.085938 747.628906 486.707031 745.648438 Z M 486.707031 745.648438 "/>
<path style=" stroke:none;fill-rule:nonzero;fill:url(#linear5);" d="M 362.558594 226.222656 L 264.949219 275.984375 C 268.996094 265.425781 273.601563 255.097656 278.777344 245.023438 C 283.921875 235.011719 289.613281 225.277344 295.871094 215.863281 C 302.078125 206.527344 308.828125 197.511719 316.136719 188.871094 C 323.363281 180.316406 331.121094 172.132813 339.390625 164.363281 L 449.304688 90.839844 C 439.796875 99.960938 430.863281 109.648438 422.5 119.878906 C 414.039063 130.222656 406.195313 141.082031 398.949219 152.414063 C 391.636719 163.851563 384.953125 175.738281 378.902344 188.015625 C 372.804688 200.390625 367.359375 213.148438 362.558594 226.222656 Z M 362.558594 226.222656 "/>
<path style=" stroke:none;fill-rule:nonzero;fill:url(#linear6);" d="M 449.296875 90.839844 L 339.390625 164.363281 C 342.199219 161.746094 345.046875 159.164063 347.964844 156.636719 C 350.867188 154.125 353.828125 151.65625 356.84375 149.25 C 359.859375 146.84375 362.921875 144.488281 366.039063 142.191406 C 369.144531 139.898438 372.300781 137.664063 375.527344 135.480469 L 490.449219 57.511719 C 486.8125 59.984375 483.226563 62.527344 479.703125 65.144531 C 476.15625 67.769531 472.675781 70.476563 469.246094 73.246094 C 465.804688 76.027344 462.429688 78.890625 459.113281 81.808594 C 455.777344 84.757813 452.507813 87.765625 449.304688 90.839844 "/>
<path style=" stroke:none;fill-rule:nonzero;fill:url(#linear7);" d="M 353.320313 522.269531 C 352.984375 520.988281 352.675781 519.683594 352.335938 518.398438 C 351.519531 515.226563 350.710938 512.046875 349.9375 508.851563 C 349.511719 507.074219 349.121094 505.273438 348.707031 503.496094 C 348.078125 500.730469 347.449219 497.949219 346.855469 495.15625 C 346.457031 493.246094 346.074219 491.332031 345.691406 489.421875 C 345.152344 486.734375 344.628906 484.050781 344.132813 481.359375 C 343.757813 479.339844 343.414063 477.324219 343.058594 475.289063 C 342.578125 472.53125 342.121094 469.761719 341.6875 466.980469 C 341.410156 465.253906 341.148438 463.53125 340.890625 461.804688 C 340.441406 458.683594 340.015625 455.550781 339.617188 452.421875 C 339.421875 450.929688 339.210938 449.453125 339.039063 447.953125 C 338.507813 443.535156 338.019531 439.085938 337.609375 434.640625 C 337.585938 434.453125 337.5625 434.273438 337.546875 434.09375 C 337.113281 429.464844 336.761719 424.828125 336.453125 420.1875 C 336.203125 416.503906 335.996094 412.816406 335.828125 409.125 C 335.792969 408.351563 335.761719 407.585938 335.726563 406.824219 C 335.574219 402.953125 335.449219 399.066406 335.378906 395.183594 C 335.363281 394.566406 335.363281 393.953125 335.359375 393.335938 C 335.289063 389.257813 335.265625 385.183594 335.304688 381.097656 C 335.304688 381.058594 335.304688 381.03125 335.296875 380.992188 C 335.34375 376.835938 335.441406 372.675781 335.582031 368.511719 C 335.605469 367.914063 335.621094 367.3125 335.640625 366.710938 C 335.726563 364.65625 335.816406 362.601563 335.921875 360.546875 C 335.957031 359.8125 335.980469 359.070313 336.015625 358.328125 C 336.175781 355.613281 336.339844 352.890625 336.535156 350.183594 C 336.59375 349.320313 336.671875 348.472656 336.738281 347.617188 C 336.878906 345.699219 337.03125 343.785156 337.195313 341.871094 C 337.292969 340.828125 337.390625 339.789063 337.488281 338.746094 C 337.660156 337.003906 337.824219 335.273438 338.003906 333.53125 C 338.117188 332.453125 338.238281 331.378906 338.359375 330.316406 C 338.550781 328.613281 338.746094 326.917969 338.957031 325.230469 C 339.09375 324.136719 339.21875 323.039063 339.371094 321.945313 C 339.585938 320.234375 339.828125 318.515625 340.066406 316.816406 C 340.21875 315.78125 340.359375 314.746094 340.511719 313.703125 C 340.78125 311.871094 341.066406 310.050781 341.363281 308.21875 C 341.507813 307.304688 341.648438 306.398438 341.800781 305.488281 C 342.25 302.773438 342.714844 300.066406 343.210938 297.367188 L 248.792969 333.113281 C 248.101563 336.742188 247.488281 340.394531 246.910156 344.046875 C 246.828125 344.625 246.722656 345.195313 246.640625 345.773438 C 246.578125 346.175781 246.503906 346.582031 246.445313 346.988281 C 245.988281 350.070313 245.582031 353.175781 245.207031 356.265625 C 245.125 356.933594 245.042969 357.601563 244.976563 358.261719 C 244.863281 359.160156 244.75 360.058594 244.644531 360.96875 C 244.359375 363.613281 244.113281 366.269531 243.878906 368.933594 C 243.84375 369.375 243.8125 369.816406 243.773438 370.261719 C 243.640625 371.835938 243.503906 373.410156 243.398438 374.992188 C 243.257813 377.003906 243.144531 379.003906 243.039063 381.015625 C 243.023438 381.1875 243.011719 381.351563 243.003906 381.523438 C 242.996094 381.578125 242.996094 381.636719 242.996094 381.699219 C 242.867188 384.140625 242.761719 386.601563 242.6875 389.046875 C 242.664063 389.910156 242.664063 390.765625 242.640625 391.628906 C 242.597656 393.210938 242.574219 394.800781 242.550781 396.390625 C 242.546875 397.539063 242.5 398.691406 242.5 399.839844 C 242.492188 400.964844 242.53125 402.097656 242.539063 403.214844 C 242.546875 404.828125 242.566406 406.449219 242.589844 408.058594 C 242.605469 408.90625 242.589844 409.769531 242.621094 410.617188 C 242.648438 412.050781 242.734375 413.484375 242.785156 414.914063 C 242.84375 416.46875 242.898438 418.019531 242.972656 419.574219 C 242.996094 420.171875 243.003906 420.773438 243.039063 421.378906 C 243.136719 423.246094 243.289063 425.113281 243.414063 426.988281 C 243.488281 428.046875 243.527344 429.097656 243.601563 430.15625 C 243.625 430.449219 243.664063 430.738281 243.683594 431.03125 C 243.714844 431.390625 243.730469 431.746094 243.753906 432.089844 C 244.023438 435.433594 244.335938 438.757813 244.691406 442.078125 C 244.691406 442.09375 244.699219 442.125 244.699219 442.140625 C 244.71875 442.335938 244.75 442.539063 244.765625 442.734375 C 245.101563 445.828125 245.46875 448.925781 245.875 452.015625 C 245.925781 452.398438 245.988281 452.78125 246.046875 453.171875 C 246.203125 454.386719 246.390625 455.59375 246.566406 456.808594 C 246.8125 458.503906 247.039063 460.199219 247.300781 461.886719 C 247.433594 462.703125 247.585938 463.523438 247.71875 464.339844 C 247.9375 465.660156 248.164063 466.980469 248.394531 468.300781 C 248.589844 469.425781 248.761719 470.558594 248.972656 471.691406 C 249.183594 472.851563 249.429688 474.007813 249.65625 475.171875 C 249.828125 476.0625 249.96875 476.96875 250.148438 477.863281 C 250.277344 478.523438 250.433594 479.183594 250.570313 479.835938 C 250.726563 480.621094 250.871094 481.410156 251.035156 482.191406 C 251.34375 483.621094 251.679688 485.046875 251.996094 486.480469 C 252.316406 487.949219 252.640625 489.425781 252.984375 490.898438 C 253.121094 491.460938 253.234375 492.03125 253.367188 492.59375 C 253.796875 494.398438 254.265625 496.183594 254.726563 497.984375 C 255.039063 499.265625 255.355469 500.550781 255.683594 501.816406 C 255.773438 502.171875 255.859375 502.53125 255.953125 502.875 C 256.59375 505.289063 257.273438 507.683594 257.957031 510.074219 C 258.210938 510.9375 258.4375 511.816406 258.691406 512.683594 C 258.722656 512.804688 258.761719 512.925781 258.789063 513.046875 C 259.050781 513.929688 259.316406 514.816406 259.578125 515.699219 C 259.847656 516.585938 260.117188 517.46875 260.386719 518.355469 C 260.65625 519.234375 260.925781 520.109375 261.210938 520.988281 C 261.488281 521.871094 261.765625 522.742188 262.050781 523.621094 L 357.128906 535.828125 C 355.800781 531.34375 354.542969 526.816406 353.320313 522.269531 Z M 353.320313 522.269531 "/>
<path style=" stroke:none;fill-rule:nonzero;fill:url(#linear8);" d="M 786.308594 669.945313 C 778.359375 665.003906 770.808594 659.03125 763.636719 652.117188 C 756.355469 645.082031 749.5 637.085938 743.09375 628.230469 C 736.585938 619.222656 730.5625 609.351563 725.035156 598.71875 C 725.378906 613.28125 725.140625 628.101563 724.316406 643.085938 C 723.488281 658.058594 722.085938 673.238281 720.109375 688.558594 C 718.136719 703.898438 715.570313 719.421875 712.433594 735.050781 C 709.292969 750.734375 705.558594 766.574219 701.238281 782.503906 C 711.101563 777.75 720.871094 772.042969 730.523438 765.328125 C 739.988281 758.753906 749.34375 751.230469 758.566406 742.703125 C 767.621094 734.347656 776.539063 725.015625 785.3125 714.710938 C 793.921875 704.578125 802.40625 693.488281 810.714844 681.398438 C 802.246094 678.636719 794.101563 674.789063 786.308594 669.945313 Z M 644.738281 709.15625 C 642.804688 693.78125 641.53125 678.148438 640.914063 662.390625 C 640.292969 646.566406 640.328125 630.652344 641.019531 614.78125 C 634.960938 628.972656 628.253906 642.984375 620.898438 656.761719 C 613.457031 670.703125 605.34375 684.425781 596.558594 697.898438 C 587.640625 711.5625 578.011719 724.996094 567.664063 738.136719 C 557.140625 751.5 545.851563 764.59375 533.785156 777.359375 C 544.675781 783.039063 555.707031 787.71875 566.851563 791.347656 C 577.757813 794.902344 588.753906 797.460938 599.785156 798.984375 C 610.578125 800.46875 621.40625 800.960938 632.214844 800.429688 C 642.796875 799.914063 653.371094 798.414063 663.878906 795.898438 C 659.441406 782.445313 655.621094 768.441406 652.441406 753.996094 C 649.226563 739.417969 646.660156 724.433594 644.738281 709.15625 Z M 565.480469 547.703125 C 553.375 555.050781 540.59375 561.710938 527.191406 567.628906 C 513.46875 573.683594 499.050781 578.96875 483.960938 583.433594 C 468.488281 588.007813 452.28125 591.71875 435.347656 594.496094 C 417.949219 597.351563 399.753906 599.21875 380.792969 600.023438 C 384.476563 608.265625 388.34375 616.3125 392.386719 624.164063 C 396.398438 631.964844 400.585938 639.5625 404.925781 646.941406 C 409.234375 654.261719 413.695313 661.378906 418.292969 668.273438 C 422.851563 675.097656 427.554688 681.703125 432.378906 688.078125 C 437.15625 694.394531 442.058594 700.492188 447.070313 706.335938 C 452.042969 712.132813 457.121094 717.683594 462.289063 723 C 467.410156 728.257813 472.621094 733.273438 477.917969 738.046875 C 483.167969 742.769531 488.484375 747.246094 493.886719 751.460938 C 497.273438 732.113281 501.429688 713.136719 506.28125 694.648438 C 511.105469 676.253906 516.601563 658.386719 522.722656 641.152344 C 528.789063 624.050781 535.457031 607.613281 542.648438 591.914063 C 549.78125 576.375 557.410156 561.613281 565.480469 547.703125 Z M 474.167969 245.863281 C 490.5625 250.957031 506.246094 256.941406 521.164063 263.761719 C 535.699219 270.390625 549.519531 277.824219 562.585938 285.976563 C 554.460938 270.335938 546.910156 253.640625 540.070313 235.988281 C 533.125 218.054688 526.921875 199.171875 521.613281 179.429688 C 516.242188 159.433594 511.796875 138.621094 508.425781 117.121094 C 505.023438 95.414063 502.71875 73.074219 501.671875 50.25 C 485.867188 60.007813 471.101563 71.078125 457.375 83.363281 C 443.371094 95.894531 430.523438 109.628906 418.855469 124.417969 C 406.984375 139.453125 396.378906 155.519531 387.023438 172.46875 C 377.550781 189.613281 369.40625 207.59375 362.558594 226.214844 C 382.863281 227.347656 402.488281 229.648438 421.367188 233.03125 C 439.683594 236.308594 457.316406 240.613281 474.167969 245.863281 Z M 444.257813 462.226563 C 458.53125 452.863281 472.824219 444.726563 487.050781 437.820313 C 500.957031 431.070313 514.800781 425.484375 528.488281 421.066406 C 514.414063 416.347656 500.042969 410.429688 485.453125 403.28125 C 470.484375 395.949219 455.28125 387.308594 439.945313 377.339844 C 424.1875 367.09375 408.289063 355.449219 392.34375 342.335938 C 375.960938 328.882813 359.546875 313.898438 343.210938 297.367188 C 339.527344 317.363281 337.15625 337.640625 336.039063 358.027344 C 334.921875 378.398438 335.058594 398.789063 336.363281 419.054688 C 337.660156 439.222656 340.113281 459.195313 343.636719 478.808594 C 347.132813 498.269531 351.664063 517.320313 357.128906 535.828125 C 371.417969 520.828125 385.976563 507.136719 400.699219 494.761719 C 415.113281 482.640625 429.664063 471.796875 444.257813 462.226563 Z M 444.257813 462.226563 "/>
<path style=" stroke:none;fill-rule:nonzero;fill:rgb(100%,100%,100%);fill-opacity:1;" d="M 108.0625 873.0625 C 159.40625 873.023438 210.742188 872.996094 262.089844 873.078125 C 262.199219 886.164063 262.125 899.257813 262.117188 912.347656 C 223.921875 912.496094 185.714844 912.300781 147.511719 912.445313 C 147.457031 930.804688 147.503906 949.171875 147.488281 967.53125 C 175.726563 967.652344 203.972656 967.546875 232.207031 967.585938 C 235.75 979.441406 238.246094 991.605469 241.5 1003.546875 C 241.832031 1004.664063 242.046875 1005.820313 242.109375 1006.988281 C 210.585938 1007.042969 179.054688 1006.976563 147.535156 1007.027344 C 147.449219 1025.445313 147.542969 1043.859375 147.480469 1062.28125 C 150.625 1062.714844 153.804688 1062.414063 156.96875 1062.496094 C 192.039063 1062.558594 227.109375 1062.371094 262.171875 1062.59375 C 262.132813 1075.570313 262.132813 1088.550781 262.171875 1101.535156 C 224.355469 1101.765625 186.542969 1101.570313 148.71875 1101.640625 C 135.160156 1101.566406 121.589844 1101.789063 108.03125 1101.519531 C 108.074219 1025.363281 107.917969 949.21875 108.0625 873.0625 Z M 108.0625 873.0625 "/>
<path style=" stroke:none;fill-rule:nonzero;fill:rgb(100%,100%,100%);fill-opacity:1;" d="M 671.085938 873.503906 C 672.4375 873.265625 673.792969 872.972656 675.1875 873.003906 C 686.804688 873.03125 698.417969 873.003906 710.027344 873.023438 C 710.46875 885.585938 710.070313 898.1875 710.230469 910.765625 C 710.617188 912.46875 708.554688 912.371094 707.492188 912.382813 C 696.976563 912.390625 686.46875 912.355469 675.953125 912.398438 C 674.304688 912.453125 672.691406 912.160156 671.085938 911.90625 C 671.136719 899.101563 671.136719 886.308594 671.085938 873.503906 Z M 671.085938 873.503906 "/>
<path style=" stroke:none;fill-rule:nonzero;fill:rgb(100%,100%,100%);fill-opacity:1;" d="M 760.808594 897.78125 C 763.613281 897.152344 766.351563 896.164063 769.238281 895.921875 C 769.195313 915.347656 769.253906 934.78125 769.207031 954.203125 C 769.417969 955.351563 768.683594 956.882813 769.671875 957.753906 C 777.082031 958.074219 784.582031 957.195313 791.941406 958.230469 C 795.234375 971.183594 798.546875 984.144531 801.660156 997.132813 C 790.855469 997.253906 780.046875 997.089844 769.238281 997.21875 C 769.214844 1014.136719 769.207031 1031.058594 769.246094 1047.976563 C 768.742188 1055.335938 775.253906 1061.90625 782.453125 1062.363281 C 791.511719 1062.699219 800.605469 1062.226563 809.671875 1062.601563 C 811.945313 1072.21875 814.417969 1081.792969 816.78125 1091.394531 C 817.5625 1094.792969 818.730469 1098.105469 819.046875 1101.59375 C 805.859375 1101.578125 792.667969 1101.714844 779.484375 1101.503906 C 755.941406 1100.058594 735.472656 1080.910156 730.859375 1058.042969 C 730.074219 1053.480469 729.601563 1048.839844 729.730469 1044.203125 C 729.714844 998.042969 729.773438 951.878906 729.699219 905.726563 C 732.359375 904.515625 735.277344 904.066406 738.097656 903.363281 C 745.667969 901.480469 753.242188 899.671875 760.808594 897.78125 Z M 760.808594 897.78125 "/>
<path style=" stroke:none;fill-rule:nonzero;fill:rgb(100%,100%,100%);fill-opacity:1;" d="M 330.046875 939.738281 C 344.566406 934.164063 360.527344 932.949219 375.855469 935.148438 C 385.90625 936.804688 395.453125 940.855469 404.070313 946.21875 C 406.410156 947.613281 408.488281 949.425781 410.972656 950.582031 C 411.121094 946.457031 411.023438 942.324219 411.054688 938.199219 C 424.214844 937.9375 437.394531 938.140625 450.5625 938.09375 C 450.570313 1014.339844 450.570313 1090.585938 450.578125 1166.820313 C 437.410156 1166.777344 424.230469 1167.007813 411.0625 1166.710938 C 411.0625 1117.628906 411.070313 1068.542969 411.039063 1019.460938 C 411.488281 1007.460938 406.457031 995.410156 397.839844 987.085938 C 389.003906 978.210938 376.582031 972.714844 363.96875 973.210938 C 343.402344 972.558594 323.851563 987.941406 318.871094 1007.761719 C 317.070313 1013.738281 317.695313 1020.078125 317.769531 1026.226563 C 318.910156 1038.023438 325.570313 1048.757813 334.464844 1056.363281 C 340.964844 1061.640625 349.050781 1064.597656 357.1875 1066.203125 C 362.175781 1066.691406 367.222656 1066.5625 372.226563 1066.253906 C 375.675781 1066.015625 378.765625 1064.125 382.207031 1063.890625 C 386.671875 1075.414063 391.621094 1086.738281 395.902344 1098.316406 C 383.355469 1103.914063 369.414063 1106.484375 355.734375 1105.488281 C 345.902344 1105.433594 336.308594 1102.496094 327.347656 1098.640625 C 314.941406 1093.316406 304.269531 1084.496094 295.988281 1073.90625 C 284.632813 1058.738281 278.296875 1039.890625 278.191406 1020.953125 C 277.949219 1003.277344 282.929688 985.523438 292.582031 970.675781 C 296.769531 963.78125 302.617188 958.15625 308.484375 952.710938 C 314.917969 947.265625 322.253906 942.925781 330.046875 939.738281 Z M 330.046875 939.738281 "/>
<path style=" stroke:none;fill-rule:nonzero;fill:rgb(100%,100%,100%);fill-opacity:1;" d="M 891.300781 936.804688 C 908.492188 932.566406 926.949219 933.25 943.6875 939.105469 C 972.398438 949.605469 994.824219 976.390625 998.820313 1006.871094 C 1000.074219 1013.964844 999.757813 1021.226563 999.535156 1028.386719 C 998.992188 1032.113281 998.714844 1035.945313 997.320313 1039.480469 C 955.269531 1039.433594 913.207031 1039.40625 871.15625 1039.496094 C 873.570313 1046.117188 878.542969 1051.53125 883.757813 1056.152344 C 890.394531 1061.523438 898.5625 1064.816406 906.945313 1066.238281 C 915.414063 1066.921875 924.203125 1066.683594 932.085938 1063.179688 C 934.449219 1062.210938 936.863281 1060.007813 939.546875 1061.304688 C 950.085938 1065.570313 960.652344 1069.757813 971.222656 1073.949219 C 973.53125 1074.933594 976.035156 1075.5625 978.128906 1077.023438 C 969.277344 1086.96875 958.171875 1094.859375 945.765625 1099.734375 C 937.230469 1103.058594 928.171875 1105.441406 918.960938 1105.449219 C 916.199219 1105.515625 913.464844 1106.140625 910.726563 1105.554688 C 896.046875 1105.691406 881.671875 1100.785156 869.09375 1093.457031 C 845.820313 1079.859375 830.265625 1054.472656 827.867188 1027.734375 C 827.6875 1020.265625 827.386719 1012.71875 828.757813 1005.332031 C 832.492188 983.996094 844.269531 963.992188 861.773438 951.078125 C 870.570313 944.484375 880.554688 939.300781 891.300781 936.804688 Z M 891.472656 978.566406 C 882.660156 983.378906 874.855469 990.8125 871.222656 1000.320313 C 899.507813 1000.417969 927.789063 1000.464844 956.070313 1000.300781 C 954.855469 996.40625 952.394531 993.121094 949.90625 989.964844 C 941.191406 979.320313 927.546875 972.675781 913.71875 973.1875 C 905.984375 972.878906 898.269531 974.949219 891.472656 978.566406 Z M 891.472656 978.566406 "/>
<path style=" stroke:none;fill-rule:nonzero;fill:rgb(100%,100%,100%);fill-opacity:1;" d="M 463.726563 938.730469 C 478.074219 938.613281 492.421875 938.582031 506.769531 938.746094 C 524.230469 976.488281 541.859375 1014.152344 559.292969 1051.90625 C 559.679688 1052.867188 560.265625 1053.699219 561.21875 1054.195313 C 574.296875 1026.820313 586.777344 999.160156 599.679688 971.703125 C 604.734375 960.699219 609.894531 949.742188 614.917969 938.726563 C 629.257813 938.558594 643.597656 938.589844 657.9375 938.710938 C 633.359375 992.183594 608.355469 1045.472656 583.703125 1098.910156 C 583.238281 1099.800781 582.765625 1100.695313 582.308594 1101.585938 C 568 1101.625 553.695313 1101.632813 539.386719 1101.578125 C 525.359375 1071.78125 511.613281 1041.84375 497.632813 1012.023438 C 486.449219 987.535156 474.839844 963.242188 463.726563 938.730469 Z M 463.726563 938.730469 "/>
<path style=" stroke:none;fill-rule:nonzero;fill:rgb(100%,100%,100%);fill-opacity:1;" d="M 671.09375 938.6875 C 684.070313 938.5 697.058594 938.792969 710.035156 938.539063 C 710.460938 948.488281 710.09375 958.480469 710.214844 968.453125 C 710.214844 1010.199219 710.214844 1051.953125 710.214844 1093.695313 C 710.207031 1096.496094 710.304688 1099.300781 710.035156 1102.089844 C 700.179688 1102 690.316406 1102.074219 680.46875 1102.042969 C 677.355469 1101.976563 674.199219 1102.359375 671.160156 1101.511719 C 671.035156 1047.242188 671.183594 992.964844 671.09375 938.6875 Z M 671.09375 938.6875 "/>
</g>
</g>
</svg>
