<?xml version="1.0" encoding="UTF-8" ?>
<!DOCTYPE svg PUBLIC "-//W3C//DTD SVG 1.1//EN" "http://www.w3.org/Graphics/SVG/1.1/DTD/svg11.dtd">
<svg width="216pt" height="216pt" viewBox="0 0 216 216" version="1.1" xmlns="http://www.w3.org/2000/svg">
<g id="#fefefeff">
</g>
<g id="#7e569fff">
<path fill="#7e569f" opacity="1.00" d=" M 102.70 12.78 C 104.59 11.61 106.53 10.50 108.62 9.71 L 108.44 10.48 C 107.31 14.58 107.99 18.85 107.88 23.04 C 107.78 39.16 107.95 55.28 107.76 71.40 L 107.57 71.28 C 90.17 60.61 72.25 50.80 54.62 40.52 C 70.63 31.25 86.68 22.04 102.70 12.78 Z" />
</g>
<g id="#693f89ff">
<path fill="#693f89" opacity="1.00" d=" M 107.88 23.04 C 107.99 18.85 107.31 14.58 108.44 10.48 C 126.07 20.35 143.49 30.60 161.00 40.68 C 156.23 43.56 151.36 46.27 146.58 49.15 C 138.70 44.70 130.97 39.99 123.01 35.68 C 122.89 44.72 123.00 53.76 122.96 62.80 C 117.94 65.61 112.88 68.38 108.09 71.60 C 108.01 71.55 107.84 71.45 107.76 71.40 C 107.95 55.28 107.78 39.16 107.88 23.04 Z" />
</g>
<g id="#797ebcff">
<path fill="#797ebc" opacity="1.00" d=" M 123.01 35.68 C 130.97 39.99 138.70 44.70 146.58 49.15 C 151.39 51.91 156.19 54.69 160.98 57.47 C 166.04 60.44 171.22 63.19 176.16 66.35 C 158.72 76.81 140.89 86.61 123.45 97.08 L 123.06 96.71 C 122.83 91.20 123.03 85.69 122.99 80.18 C 122.95 74.39 122.94 68.59 122.96 62.80 C 123.00 53.76 122.89 44.72 123.01 35.68 Z" />
</g>
<g id="#8f6eaeff">
<path fill="#8f6eae" opacity="1.00" d=" M 54.43 40.40 L 54.62 40.52 C 72.25 50.80 90.17 60.61 107.57 71.28 C 102.66 74.43 97.50 77.17 92.49 80.15 C 87.76 82.87 83.03 85.59 78.31 88.33 C 70.31 92.86 62.44 97.62 54.37 102.02 C 54.38 92.89 54.40 83.76 54.38 74.64 C 54.39 68.92 54.38 63.21 54.42 57.49 C 54.45 51.80 54.41 46.10 54.43 40.40 Z" />
</g>
<g id="#422857ff">
<path fill="#422857" opacity="1.00" d=" M 146.58 49.15 C 151.36 46.27 156.23 43.56 161.00 40.68 C 160.97 46.28 161.00 51.88 160.98 57.47 C 156.19 54.69 151.39 51.91 146.58 49.15 Z" />
<path fill="#422857" opacity="1.00" d=" M 108.09 71.60 C 112.88 68.38 117.94 65.61 122.96 62.80 C 122.94 68.59 122.95 74.39 122.99 80.18 C 118.02 77.32 113.05 74.47 108.09 71.60 Z" />
<path fill="#422857" opacity="1.00" d=" M 95.94 173.40 C 97.63 173.41 99.33 173.40 101.02 173.38 C 101.21 182.48 101.05 191.58 101.11 200.68 L 99.97 200.66 C 100.19 191.84 100.40 183.01 99.87 174.20 C 99.19 174.21 97.84 174.24 97.16 174.26 C 97.03 177.74 96.89 181.25 96.24 184.69 C 95.69 180.95 95.90 177.16 95.94 173.40 Z" />
</g>
<g id="#275757ff">
<path fill="#275757" opacity="1.00" d=" M 39.38 66.21 C 44.32 63.19 49.37 60.35 54.42 57.49 C 54.38 63.21 54.39 68.92 54.38 74.64 C 49.28 72.00 44.38 69.02 39.38 66.21 Z" />
<path fill="#275757" opacity="1.00" d=" M 78.31 88.33 C 83.03 85.59 87.76 82.87 92.49 80.15 C 92.54 85.68 92.48 91.21 92.49 96.74 C 87.73 94.00 82.84 91.46 78.31 88.33 Z" />
</g>
<g id="#3f8989ff">
<path fill="#3f8989" opacity="1.00" d=" M 39.16 66.08 L 39.38 66.21 C 44.38 69.02 49.28 72.00 54.38 74.64 C 54.40 83.76 54.38 92.89 54.37 102.02 C 62.44 97.62 70.31 92.86 78.31 88.33 C 82.84 91.46 87.73 94.00 92.49 96.74 L 92.51 96.98 C 74.64 107.03 56.99 117.45 39.18 127.58 C 39.17 107.08 39.22 86.58 39.16 66.08 Z" />
</g>
<g id="#686bafff">
<path fill="#686baf" opacity="1.00" d=" M 123.45 97.08 C 140.89 86.61 158.72 76.81 176.16 66.35 C 175.92 86.93 176.17 107.51 176.04 128.09 L 175.65 127.83 C 164.21 120.61 152.25 114.21 140.60 107.35 C 134.90 103.89 128.83 101.03 123.45 97.08 Z" />
</g>
<g id="#55b8b8ff">
<path fill="#55b8b8" opacity="1.00" d=" M 39.18 127.58 C 56.99 117.45 74.64 107.03 92.51 96.98 C 92.18 115.97 92.46 134.97 92.38 153.96 C 92.35 155.27 92.04 156.52 91.43 157.70 C 73.98 147.71 56.59 137.63 39.18 127.58 Z" />
</g>
<g id="#80cbd6ff">
<path fill="#80cbd6" opacity="1.00" d=" M 92.51 96.98 C 97.60 99.83 102.63 102.79 107.68 105.70 C 112.72 108.58 117.75 111.49 122.79 114.38 C 130.38 118.85 138.13 123.06 145.63 127.68 C 138.03 132.07 130.43 136.44 122.84 140.83 C 117.79 143.74 112.74 146.66 107.68 149.55 C 102.12 152.36 97.15 156.57 91.15 158.34 L 91.43 157.70 C 92.04 156.52 92.35 155.27 92.38 153.96 C 92.46 134.97 92.18 115.97 92.51 96.98 Z" />
</g>
<g id="#5455a1ff">
<path fill="#5455a1" opacity="1.00" d=" M 122.50 97.10 C 122.64 97.00 122.92 96.81 123.06 96.71 L 123.45 97.08 C 128.83 101.03 134.90 103.89 140.60 107.35 C 152.25 114.21 164.21 120.61 175.65 127.83 C 158.14 138.11 140.48 148.13 122.93 158.33 C 122.71 152.50 122.72 146.67 122.84 140.83 C 130.43 136.44 138.03 132.07 145.63 127.68 C 138.13 123.06 130.38 118.85 122.79 114.38 C 122.70 108.62 122.97 102.85 122.50 97.10 Z" />
</g>
<g id="#3b3b71ff">
<path fill="#3b3b71" opacity="1.00" d=" M 107.68 105.70 C 112.60 102.80 117.61 100.06 122.50 97.10 C 122.97 102.85 122.70 108.62 122.79 114.38 C 117.75 111.49 112.72 108.58 107.68 105.70 Z" />
<path fill="#3b3b71" opacity="1.00" d=" M 107.68 149.55 C 112.74 146.66 117.79 143.74 122.84 140.83 C 122.72 146.67 122.71 152.50 122.93 158.33 C 117.82 155.44 112.76 152.48 107.68 149.55 Z" />
</g>
<g id="#4e4665ff">
<path fill="#4e4665" opacity="1.00" d=" M 16.71 174.68 C 18.82 172.97 21.76 173.50 24.27 173.30 C 24.31 174.37 24.38 176.52 24.41 177.59 C 23.11 177.62 21.82 177.66 20.52 177.70 C 20.52 178.60 20.51 180.39 20.50 181.29 C 21.77 181.28 23.04 181.26 24.31 181.25 C 24.31 182.70 24.32 184.15 24.32 185.61 C 23.05 185.59 21.79 185.57 20.52 185.55 C 20.53 190.60 20.54 195.65 20.53 200.70 C 18.71 200.69 16.88 200.69 15.05 200.70 C 14.98 195.65 15.05 190.59 15.02 185.54 C 14.36 185.55 13.05 185.58 12.40 185.59 C 12.40 184.14 12.40 182.70 12.41 181.26 C 13.04 181.27 14.29 181.29 14.92 181.30 C 15.10 179.04 14.88 176.37 16.71 174.68 Z" />
<path fill="#4e4665" opacity="1.00" d=" M 97.16 174.26 C 97.84 174.24 99.19 174.21 99.87 174.20 C 100.40 183.01 100.19 191.84 99.97 200.66 C 98.60 200.68 97.23 200.71 95.87 200.75 C 95.92 199.90 96.02 198.21 96.07 197.37 C 94.57 199.29 92.69 201.63 89.91 201.05 C 84.82 201.08 82.88 195.26 83.05 191.02 C 82.86 186.76 84.82 180.80 89.99 180.94 C 92.82 180.35 94.71 182.74 96.24 184.69 C 96.89 181.25 97.03 177.74 97.16 174.26 M 91.37 185.34 C 88.10 186.45 88.75 190.30 88.83 193.03 C 88.53 195.68 91.89 197.69 94.12 196.24 C 96.93 194.95 95.63 191.30 95.90 188.89 C 96.32 186.45 93.51 184.78 91.37 185.34 Z" />
<path fill="#4e4665" opacity="1.00" d=" M 43.27 183.31 C 46.73 179.99 53.15 179.92 56.30 183.71 C 58.46 186.02 58.35 189.38 58.68 192.31 C 54.44 192.34 50.20 192.28 45.97 192.35 C 46.35 193.54 46.74 194.73 47.12 195.92 C 49.86 197.45 53.07 196.77 55.26 194.60 C 56.16 195.68 57.08 196.76 57.99 197.84 C 53.57 202.68 43.77 202.33 41.42 195.59 C 40.28 191.56 40.29 186.58 43.27 183.31 M 48.08 184.91 C 47.14 186.17 46.34 187.54 45.85 189.05 C 48.29 189.10 50.74 189.11 53.18 189.09 C 53.11 186.25 50.95 184.20 48.08 184.91 Z" />
<path fill="#4e4665" opacity="1.00" d=" M 62.31 181.27 C 64.14 181.27 65.98 181.27 67.81 181.28 C 67.80 182.07 67.77 183.65 67.75 184.44 C 69.67 179.91 76.82 179.55 78.60 184.33 C 79.78 189.68 79.03 195.29 79.12 200.73 C 77.46 200.72 75.79 200.74 74.13 200.80 L 74.16 200.72 C 75.65 196.70 75.11 192.34 74.83 188.16 C 74.58 187.86 74.08 187.26 73.83 186.96 C 73.25 186.31 72.66 185.68 72.06 185.05 C 70.46 185.46 67.65 185.59 67.88 187.96 C 67.66 192.19 67.88 196.44 67.81 200.68 C 65.98 200.69 64.14 200.69 62.31 200.69 C 62.32 194.22 62.32 187.74 62.31 181.27 Z" />
<path fill="#4e4665" opacity="1.00" d=" M 108.71 181.71 C 112.42 180.19 117.77 180.54 120.28 183.93 C 119.48 185.05 118.54 186.05 117.63 187.09 C 115.72 185.86 112.36 183.55 110.66 186.18 C 109.25 187.45 111.90 188.53 112.95 188.60 C 115.54 189.06 118.84 189.22 120.24 191.88 C 122.21 194.92 120.11 199.01 117.00 200.26 C 112.89 201.95 107.42 201.23 104.72 197.41 C 105.72 196.45 106.71 195.50 107.70 194.54 C 109.74 196.39 114.62 198.69 115.88 194.95 C 114.41 192.22 110.33 193.72 108.01 192.03 C 103.90 190.00 104.64 183.39 108.71 181.71 Z" />
<path fill="#4e4665" opacity="1.00" d=" M 136.88 182.86 C 141.04 179.40 147.84 180.55 150.59 185.26 C 149.36 186.37 147.88 187.14 146.41 187.87 C 145.27 185.56 142.18 183.92 140.19 186.28 C 139.04 189.22 139.05 192.75 140.19 195.70 C 142.18 198.00 145.63 196.56 146.38 193.88 C 147.81 194.49 149.23 195.13 150.65 195.78 C 148.47 202.85 137.16 202.81 134.74 195.99 C 133.27 191.72 133.40 186.15 136.88 182.86 Z" />
<path fill="#4e4665" opacity="1.00" d=" M 158.30 181.35 C 162.14 180.17 167.12 181.17 169.03 185.04 C 171.13 189.27 170.98 195.06 167.74 198.71 C 163.79 202.60 155.88 201.72 153.62 196.38 C 151.39 191.27 152.32 183.38 158.30 181.35 M 160.28 185.28 C 157.30 186.71 158.06 190.43 158.06 193.10 C 157.82 195.68 161.02 198.02 163.25 196.32 C 165.60 194.62 164.83 191.37 164.88 188.89 C 165.03 186.57 162.57 184.31 160.28 185.28 Z" />
<path fill="#4e4665" opacity="1.00" d=" M 179.48 184.83 C 180.76 182.94 182.28 180.44 184.97 180.92 C 187.63 180.49 189.43 182.73 190.64 184.75 C 191.92 179.87 200.01 179.47 201.42 184.49 C 202.66 189.77 201.70 195.31 202.00 200.70 C 200.23 200.70 198.47 200.72 196.71 200.75 C 196.46 196.30 196.95 191.83 196.46 187.41 C 196.06 184.57 192.13 184.75 191.07 186.93 C 190.70 191.51 191.04 196.11 190.90 200.70 C 189.07 200.69 187.24 200.69 185.41 200.69 C 185.31 195.81 185.73 190.90 185.05 186.04 C 183.22 184.67 179.73 185.23 179.75 187.96 C 179.54 192.20 179.76 196.45 179.69 200.69 C 177.86 200.69 176.02 200.69 174.19 200.69 C 174.18 194.23 174.25 187.77 174.15 181.32 C 176.02 181.29 177.88 181.28 179.76 181.28 C 179.67 182.46 179.57 183.65 179.48 184.83 Z" />
</g>
<g id="#484060ff">
<path fill="#484060" opacity="1.00" d=" M 27.29 181.29 C 29.13 181.29 30.98 181.30 32.82 181.31 C 32.76 182.33 32.64 184.39 32.58 185.41 C 33.65 182.79 35.89 181.12 38.72 181.10 C 38.76 182.82 38.78 184.54 38.80 186.26 C 36.90 186.37 35.01 186.66 33.16 187.14 C 32.41 191.61 32.87 196.16 32.78 200.67 C 30.95 200.67 29.12 200.67 27.28 200.67 C 27.31 194.21 27.31 187.75 27.29 181.29 Z" />
</g>
<g id="#3b3254ff">
<path fill="#3b3254" opacity="1.00" d=" M 73.83 186.96 C 74.08 187.26 74.58 187.86 74.83 188.16 C 75.11 192.34 75.65 196.70 74.16 200.72 C 73.71 196.14 74.13 191.54 73.83 186.96 Z" />
</g>
<g id="#4d4564ff">
<path fill="#4d4564" opacity="1.00" d=" M 124.70 195.75 C 125.76 193.79 128.28 194.51 130.00 194.96 C 130.97 197.04 130.84 199.40 129.12 201.05 C 128.28 201.05 126.59 201.04 125.74 201.04 C 124.47 199.64 123.38 197.49 124.70 195.75 Z" />
</g>
</svg>
